<svg xmlns="http://www.w3.org/2000/svg" xmlns:xlink="http://www.w3.org/1999/xlink" viewBox="0 0 1276.95 428.41"><defs><style>.cls-1{filter:url(#luminosity-noclip-2);}.cls-2{mask:url(#mask);}.cls-26,.cls-3{mix-blend-mode:multiply;}.cls-3{fill:url(#linear-gradient);}.cls-4{fill:none;}.cls-5{isolation:isolate;}.cls-6{clip-path:url(#clip-path);}.cls-7{fill:#4dc0d0;}.cls-8{fill:#323332;}.cls-13,.cls-33,.cls-52,.cls-9{fill:#fff;}.cls-10{fill:#030303;}.cls-11,.cls-12{fill:#f5f5d5;}.cls-12,.cls-13{opacity:0.1;}.cls-14{fill:#434244;}.cls-15{fill:#131b18;}.cls-16{mask:url(#mask-2);}.cls-17{opacity:0.43;fill:url(#linear-gradient-2);}.cls-18{clip-path:url(#clip-path-3);}.cls-19{fill:#f19220;}.cls-20{fill:#93c13e;}.cls-21{fill:#f6e813;}.cls-22{fill:#e4097d;}.cls-23{fill:#209dd8;}.cls-24{fill:#6a4596;}.cls-25{fill:#6b4595;}.cls-26{opacity:0.21;fill:url(#radial-gradient);}.cls-27{fill:url(#linear-gradient-3);}.cls-28{fill:url(#radial-gradient-2);}.cls-29{fill:url(#radial-gradient-3);}.cls-30,.cls-34{mix-blend-mode:screen;}.cls-30{fill:url(#linear-gradient-4);}.cls-31,.cls-32{mix-blend-mode:overlay;}.cls-31{fill:url(#radial-gradient-4);}.cls-32{fill:url(#radial-gradient-5);}.cls-33{font-size:15.01px;font-family:HaydonBrushPERSONALUSE, Haydon Brush PERSONAL USE;}.cls-34{opacity:0.39;}.cls-35,.cls-36{fill:#9fdcf4;stroke:#fff;stroke-miterlimit:10;}.cls-35{stroke-width:1.4px;}.cls-36{stroke-width:1.11px;}.cls-37{fill:#1b75bc;}.cls-38,.cls-40{font-size:35.75px;font-family:Raleway-Black, Raleway;}.cls-38,.cls-40,.cls-50{fill:#008fc4;}.cls-38{letter-spacing:-0.03em;}.cls-39{letter-spacing:-0.03em;}.cls-41{letter-spacing:-0.05em;}.cls-42,.cls-45{letter-spacing:-0.01em;}.cls-43,.cls-47{letter-spacing:-0.01em;}.cls-44,.cls-45,.cls-46,.cls-47,.cls-48,.cls-49{opacity:0.5;}.cls-46{letter-spacing:-0.03em;}.cls-48{letter-spacing:0em;}.cls-49{letter-spacing:-0.01em;}.cls-51{font-size:71.2px;fill:#dd5ca2;font-family:RaphLanokFuture, Raph Lanok Future;}.cls-52{fill-rule:evenodd;opacity:0.7;}.cls-53{filter:url(#luminosity-noclip);}</style><filter id="luminosity-noclip" x="173.03" y="-7294.27" width="178.96" height="32766" filterUnits="userSpaceOnUse" color-interpolation-filters="sRGB"><feFlood flood-color="#fff" result="bg"/><feBlend in="SourceGraphic" in2="bg"/></filter><mask id="mask" x="173.03" y="-7294.27" width="178.96" height="32766" maskUnits="userSpaceOnUse"><g class="cls-53"/></mask><linearGradient id="linear-gradient" x1="547.85" y1="281.76" x2="726.82" y2="281.76" gradientTransform="matrix(1, 0, 0, 1, -374.83, -87.35)" gradientUnits="userSpaceOnUse"><stop offset="0" stop-color="#1a1a1a"/><stop offset="0.42" stop-color="#fff"/></linearGradient><clipPath id="clip-path"><rect id="fondo" class="cls-4" width="1276.95" height="333.15"/></clipPath><filter id="luminosity-noclip-2" x="173.03" y="-39.84" width="178.96" height="468.25" filterUnits="userSpaceOnUse" color-interpolation-filters="sRGB"><feFlood flood-color="#fff" result="bg"/><feBlend in="SourceGraphic" in2="bg"/></filter><mask id="mask-2" x="173.03" y="-39.84" width="178.96" height="468.25" maskUnits="userSpaceOnUse"><g id="_Group_2" data-name="&lt;Group&gt;" class="cls-1"><g class="cls-2"><path id="_Path_" data-name="&lt;Path&gt;" class="cls-3" d="M203.07-39.77A30.17,30.17,0,0,0,173-9.44l.13,407.53a30.18,30.18,0,0,0,30,30.32h38.08L352-39.84Z"/></g></g></mask><linearGradient id="linear-gradient-2" x1="547.84" y1="315.43" x2="726.8" y2="315.43" gradientTransform="matrix(1, 0, 0, 1, -374.83, -87.35)" gradientUnits="userSpaceOnUse"><stop offset="0" stop-color="#fff"/><stop offset="0.42" stop-color="#fff"/></linearGradient><clipPath id="clip-path-3"><rect id="_Clipping_Path_2" data-name="&lt;Clipping Path&gt;" class="cls-4" x="210" y="69.13" width="262.53" height="318.94" transform="translate(-0.96 1.44) rotate(-0.24)"/></clipPath><radialGradient id="radial-gradient" cx="387.89" cy="327.52" r="46.77" gradientTransform="translate(-116.91 274.83) scale(1.17 0.16)" gradientUnits="userSpaceOnUse"><stop offset="0" stop-color="#231f20"/><stop offset="0.02" stop-color="#2d292a" stop-opacity="0.95"/><stop offset="0.33" stop-color="#a2a0a1" stop-opacity="0.42"/><stop offset="0.65" stop-color="#e8e8e8" stop-opacity="0.1"/><stop offset="1" stop-color="#fff" stop-opacity="0"/></radialGradient><linearGradient id="linear-gradient-3" x1="340.53" y1="235.16" x2="397.73" y2="235.16" gradientTransform="translate(-48.55 67.2) scale(1.04)" gradientUnits="userSpaceOnUse"><stop offset="0" stop-color="#a7258c"/><stop offset="0.38" stop-color="#a8278d"/><stop offset="0.52" stop-color="#aa2e91"/><stop offset="0.62" stop-color="#af3997"/><stop offset="0.7" stop-color="#b64aa0"/><stop offset="0.77" stop-color="#bf60ab"/><stop offset="0.83" stop-color="#ca7cba"/><stop offset="0.89" stop-color="#d79ccb"/><stop offset="0.94" stop-color="#e6c2df"/><stop offset="0.98" stop-color="#f7ebf4"/><stop offset="1" stop-color="#fff"/></linearGradient><radialGradient id="radial-gradient-2" cx="-278.29" cy="2338.75" r="49.44" gradientTransform="translate(534.71 -815.3) scale(0.76 0.48)" gradientUnits="userSpaceOnUse"><stop offset="0" stop-color="#e9559e"/><stop offset="1" stop-color="#ea158c"/></radialGradient><radialGradient id="radial-gradient-3" cx="-1321.72" cy="-755.54" r="26.54" gradientTransform="matrix(0.85, -0.73, 1.15, 0.54, 2315.76, -238.25)" gradientUnits="userSpaceOnUse"><stop offset="0" stop-color="#fff"/><stop offset="1" stop-color="#e9559e"/></radialGradient><linearGradient id="linear-gradient-4" x1="307.5" y1="312.18" x2="352.57" y2="312.18" gradientUnits="userSpaceOnUse"><stop offset="0" stop-color="#fff" stop-opacity="0"/><stop offset="0.15" stop-color="#fff" stop-opacity="0.02"/><stop offset="0.34" stop-color="#fff" stop-opacity="0.09"/><stop offset="0.55" stop-color="#fff" stop-opacity="0.19"/><stop offset="0.79" stop-color="#fff" stop-opacity="0.34"/><stop offset="1" stop-color="#fff" stop-opacity="0.5"/></linearGradient><radialGradient id="radial-gradient-4" cx="3604.21" cy="1548.36" r="5.74" gradientTransform="matrix(0.25, 0.52, -1.72, 0.66, 2085.98, -2596.77)" gradientUnits="userSpaceOnUse"><stop offset="0" stop-color="#fff"/><stop offset="0" stop-color="#fff" stop-opacity="0.99"/><stop offset="0.12" stop-color="#fff" stop-opacity="0.76"/><stop offset="0.25" stop-color="#fff" stop-opacity="0.56"/><stop offset="0.37" stop-color="#fff" stop-opacity="0.39"/><stop offset="0.5" stop-color="#fff" stop-opacity="0.25"/><stop offset="0.62" stop-color="#fff" stop-opacity="0.14"/><stop offset="0.75" stop-color="#fff" stop-opacity="0.06"/><stop offset="0.87" stop-color="#fff" stop-opacity="0.02"/><stop offset="1" stop-color="#fff" stop-opacity="0"/></radialGradient><radialGradient id="radial-gradient-5" cx="3076.54" cy="932.45" r="4.27" gradientTransform="matrix(0.3, 0.7, -2.02, 0.7, 1324.02, -2478.67)" xlink:href="#radial-gradient-4"/><image id="image" width="1194" height="479" xlink:href="../../PAGINA 1 -  NUEVA INICIO/PAGINA 1 -  NUEVA INICIO_EDITABLE/Links/Screen Shot 2018-07-16 at 8.42.31 PM.png"/></defs><title>bar-ser voluntario</title><g class="cls-5"><g id="Layer_2" data-name="Layer 2"><g id="PAGINA_1_-_NUEVA_INICIO" data-name="PAGINA 1 -  NUEVA INICIO"><g id="_5._ANUNCIO" data-name="5. ANUNCIO"><g class="cls-6"><g id="_5._ANUNCIO_VOLUNTARIOS" data-name="5. ANUNCIO VOLUNTARIOS"><rect id="fondo-2" data-name="fondo" class="cls-7" width="1276.95" height="333.15"/><g id="CELULARES"><g class="cls-6"><g id="_Group_3" data-name="&lt;Group&gt;"><g id="celular"><path id="_Path_2" data-name="&lt;Path&gt;" class="cls-8" d="M507.37,397.68a30.6,30.6,0,0,1-30.59,30.61l-276.39.12a30.61,30.61,0,0,1-30.61-30.6l-.13-343.39a30.6,30.6,0,0,1,30.6-30.62l276.38-.11A30.62,30.62,0,0,1,507.24,54.3Z"/><g id="_Group_4" data-name="&lt;Group&gt;"><g id="_Group_5" data-name="&lt;Group&gt;"><g id="_Group_6" data-name="&lt;Group&gt;"><rect class="cls-9" x="206.32" y="62.37" width="270.04" height="318.94" transform="translate(-0.93 1.43) rotate(-0.24)"/></g></g><g id="_Group_7" data-name="&lt;Group&gt;"><path id="_Path_3" data-name="&lt;Path&gt;" class="cls-10" d="M463.89,41.92a6.47,6.47,0,1,1-6.49-6.45A6.47,6.47,0,0,1,463.89,41.92Z"/><path id="_Path_4" data-name="&lt;Path&gt;" class="cls-11" d="M460.66,41.93a3.25,3.25,0,1,1-3.26-3.23A3.25,3.25,0,0,1,460.66,41.93Z"/></g><g id="_Group_8" data-name="&lt;Group&gt;"><path id="_Path_5" data-name="&lt;Path&gt;" class="cls-10" d="M369.23,403.86a15.73,15.73,0,1,1-15.78-15.68A15.72,15.72,0,0,1,369.23,403.86Z"/><path id="_Path_6" data-name="&lt;Path&gt;" class="cls-12" d="M365,403.86a11.51,11.51,0,1,1-11.55-11.47A11.51,11.51,0,0,1,365,403.86Z"/></g><path id="_Compound_Path_" data-name="&lt;Compound Path&gt;" class="cls-13" d="M476.72,373.39l-271.16,1.13-1.4-315.14,271.16-1.14Zm-267.53.79,265.38-1.1L473.23,63.83l-265.4,1.1Z"/><g id="_Group_9" data-name="&lt;Group&gt;"><polygon id="_Path_7" data-name="&lt;Path&gt;" class="cls-14" points="478.6 381.67 201.82 382.83 201.8 378.68 474.58 377.54 473.18 56.69 477.18 54.68 478.6 381.67"/><polygon id="_Path_8" data-name="&lt;Path&gt;" class="cls-15" points="209.14 382.82 200.24 382.85 198.81 55.84 477.1 54.67 477.13 63.58 207.74 64.71 209.14 382.82"/></g><path id="_Path_9" data-name="&lt;Path&gt;" class="cls-10" d="M378.14,43.66a3.42,3.42,0,0,1-3.42,3.42l-49.12,0a3.43,3.43,0,0,1-3.42-3.43h0a3.43,3.43,0,0,1,3.42-3.44h49.11a3.43,3.43,0,0,1,3.43,3.43Z"/></g><g class="cls-16"><path id="_Path_10" data-name="&lt;Path&gt;" class="cls-17" d="M203.07,27.56a30.17,30.17,0,0,0-30,30.33l.13,340.2a30.18,30.18,0,0,0,30,30.32h38.08L352,27.49Z"/></g><path id="pantalla" class="cls-13" d="M476.72,373.39l-271.16,1.13-1.4-315.14,271.16-1.14Zm-267.53.79,265.38-1.1L473.23,63.83l-265.4,1.1Z"/></g><g id="imagenes_cel" data-name="imagenes cel"><g class="cls-18"><g id="_Group_10" data-name="&lt;Group&gt;"><use id="_Image_" data-name="&lt;Image&gt;" transform="translate(208.38 128.17) scale(0.23)" xlink:href="#image"/><use id="_Image_2" data-name="&lt;Image&gt;" transform="translate(46.37 182.86) scale(0.23)" xlink:href="#image"/><use id="_Image_3" data-name="&lt;Image&gt;" transform="translate(315.71 182.86) scale(0.23)" xlink:href="#image"/></g></g></g><g id="_Group_11" data-name="&lt;Group&gt;"><path id="_Path_11" data-name="&lt;Path&gt;" class="cls-19" d="M319.23,76.81a1.83,1.83,0,0,0,.46.32c1.5.44,1.9,1.13,1.95,2.78.05,1.85-.07,3.7,0,5.56.21,4.34.07,8.69-.12,13a12.21,12.21,0,0,1-.53,2.92,2.09,2.09,0,0,1-2.19,1.64,20.84,20.84,0,0,1-3.15-.26c-1.3-.12-1.9-1.08-1.95-2.45a32,32,0,0,0-.45-3.52,42,42,0,0,1-.2-5.79c0-2.66-.38-5.32-.15-8,.13-1.46.2-2.93.38-4.39.1-.76.38-1.51,1.3-1.69.63-.2,1.31.08,1.94-.17h.39a2,2,0,0,0,1.35,0Z"/><path id="_Path_12" data-name="&lt;Path&gt;" class="cls-20" d="M352.66,108.26a29.4,29.4,0,0,1-.44,4.79,3.62,3.62,0,0,1-1.73,2.44,1.19,1.19,0,0,1-.91.26c-1.8-.38-3.49.33-5.23.46a38.33,38.33,0,0,1-6,.27,9.59,9.59,0,0,0-3.59.23.8.8,0,0,1-.29,0c-3.95-.29-7.88.48-11.84.09-2.34-.23-4.71-.17-7-.55-1.85-.31-2.4-.75-2.52-2.74-.1-1.74,0-3.48-.12-5.23a4,4,0,0,1,4.38-4.58,37.11,37.11,0,0,0,7.5,0,6.88,6.88,0,0,1,1.41,0c2.86.26,5.7-.35,8.56-.2,4.1.22,8.22.26,12.32.48a11.33,11.33,0,0,1,3.63.88C352.21,105.56,352.66,106.51,352.66,108.26Z"/><path id="_Path_13" data-name="&lt;Path&gt;" class="cls-21" d="M359.21,83.18a27.11,27.11,0,0,1,.07-4c.17-1.45.55-1.78,2-1.66a12.17,12.17,0,0,0,2.53-.09,16.75,16.75,0,0,1,4.87.34,1.8,1.8,0,0,1,1.45,1.73,26.55,26.55,0,0,1-.19,6.61c-.1.56-.45.78-1.05,1.07-1.94.92-4,.52-6,.91a7,7,0,0,1-3-.51c-.52-.13-.63-.72-.65-1.19C359.18,85.3,359.21,84.24,359.21,83.18Z"/><path id="_Path_14" data-name="&lt;Path&gt;" class="cls-22" d="M349.92,91.07c0-.16,0-.32,0-.48,0-1.64.53-2,2.16-1.59a.74.74,0,0,1,.62.73c.07.89.13,1.79.2,2.68.22,2.91.29,5.82.28,8.74,0,.61-.11,1.12-.89,1.24-1.26.19-2,0-2.36-.72a22.76,22.76,0,0,0-1.14-3.07c0,1,0,1.83,0,2.62,0,.63-.22,1-.9.93l-.58,0c-1.74-.1-1.64-.12-1.71-1.85-.13-3.43-.12-6.85-.12-10.28,0-.73.23-.92.85-.91s1.22.07,1.83.06c.42,0,.55.25.69.54a13.47,13.47,0,0,1,.88,2.33C350.21,91.8,349.94,91.41,349.92,91.07Z"/><path id="_Path_15" data-name="&lt;Path&gt;" class="cls-23" d="M328.56,84c-1,1.48-1.18,1.53-2.7.82a10.72,10.72,0,0,0-.23,2.26c-.08.95-.38,1.11-1.62,1.1-.79,0-1-.4-1-1.1,0-3-.1-6.07-.15-9.1a.72.72,0,0,1,.11-.55c.59-.65,2.83-.22,3.16.61s.58,1.54.94,2.5c.45-1,.84-1.77,1.18-2.58.46-1.11,1.37-.55,2.08-.55s.7.54.7,1.13q0,4.28.12,8.55c0,.77-.1,1.25-1,1.27-1.18,0-1.61-.26-1.63-1.24S328.56,85.12,328.56,84Z"/><path id="_Path_16" data-name="&lt;Path&gt;" class="cls-22" d="M332.68,92.64H330a1.33,1.33,0,0,1-1.44-1.51c0-1.6.06-1.68,1.68-1.55a42.47,42.47,0,0,1,4.69.13c.63.12.78.42.91,1,.41,1.81-.82,3.06-1.46,4.49s-1.46,2.69-2.25,4.11a12.11,12.11,0,0,0,2.78.09c.69,0,1.24.18,1.21,1s.11,1.56-1,1.62c-2.1.11-4.21.3-6.31.23-.53,0-.68-.4-.75-.93-.16-1.33.69-2.23,1.27-3.24A34.45,34.45,0,0,1,332.68,92.64Z"/><path id="_Path_17" data-name="&lt;Path&gt;" class="cls-23" d="M331.74,81.57c0-1,0-2.06,0-3.08,0-.37-.19-.92.53-.87s1.48-.45,1.82.53a4.62,4.62,0,0,1,.15,1.23,56.47,56.47,0,0,0,.17,6.06c.05.32,0,.72.41.76s.52-.36.63-.71a5.85,5.85,0,0,0,.18-2.19c-.13-1.64.22-3.27,0-4.9-.05-.45.2-.7.65-.79,1.58-.32,2,.06,2,1.69-.07,1.89-.15,3.78-.21,5.67a5.69,5.69,0,0,1-.78,2.65c-.45.8-1.61,1-3.06.72a2.94,2.94,0,0,1-2.3-2.55A25.29,25.29,0,0,1,331.74,81.57Z"/><path id="_Path_18" data-name="&lt;Path&gt;" class="cls-22" d="M323.42,95.6a26.77,26.77,0,0,1,0-5.29c.1-1.19.2-1.3,1.59-1.31s1.85.33,1.83,1.28c-.09,3.46.18,6.92-.14,10.37-.14,1.57-.85,2-2.34,1.49a1,1,0,0,1-.75-.89A54,54,0,0,1,323.42,95.6Z"/><path id="_Path_19" data-name="&lt;Path&gt;" class="cls-23" d="M353.37,82c0-1.25,0-2.5,0-3.75,0-.59.24-.83.76-.85.35,0,.71,0,1.06,0,.84-.07,1.07.41,1.05,1.12,0,2,0,4-.17,5.95-.06.86.21,1.1,1,1.17,1.41.12,1.61.45,1.53,1.86,0,.54-.26.76-.76.75a28.41,28.41,0,0,1-3.55-.18c-.56-.08-.72-.37-.78-.89A49.49,49.49,0,0,1,353.37,82Z"/><g id="_Group_12" data-name="&lt;Group&gt;"><path id="_Compound_Path_2" data-name="&lt;Compound Path&gt;" class="cls-22" d="M370.08,91.72a4,4,0,0,0-3-2.92,3.86,3.86,0,0,0-4.41,1.87A11.83,11.83,0,0,0,362,98a5.9,5.9,0,0,0,1.86,3.6c1.32,1.17,3.94,1.16,5-.09a7,7,0,0,0,1.54-3c.06-.26,0-.6.36-.72v-4C370.22,93.18,370.31,92.4,370.08,91.72Zm-3.31,6.54c-.29.5-.59.61-.88,0a5.72,5.72,0,0,1-.06-5c.24-.54.78-.5,1.14.08a4,4,0,0,1,.42,2.14A5.59,5.59,0,0,1,366.76,98.27Z"/></g><g id="_Group_13" data-name="&lt;Group&gt;"><path id="_Compound_Path_3" data-name="&lt;Compound Path&gt;" class="cls-24" d="M362.06,115.07c-.11-.3-.3-.57-.43-.86-.51-1.11-1.44-2.19-.19-3.41a1,1,0,0,0,.18-.54,11.21,11.21,0,0,0,0-3.46c-.36-2.07-1.34-3-3.48-3.19a19.55,19.55,0,0,0-3.06,0c-.6,0-.91.36-.9,1.08,0,2.76,0,5.51,0,8.27h.26c0,.74-.12,1.47-.12,2.21a1.32,1.32,0,0,0,2.63.28c.07-.48.08-1,.19-1.43.07-.31-.06-.8.43-.86s.45.46.57.75c.24.59.41,1.21.63,1.82.11.3.25.58.67.57.61,0,1.22.06,1.83,0A.87.87,0,0,0,362.06,115.07Zm-3.94-5.43c-.15.26-.38.5-.69.43s-.15-.43-.18-.66,0-.7-.07-1.23a2.84,2.84,0,0,1,0-.6c.05-.29-.25-.79.33-.82s1,.23,1,.73A4.3,4.3,0,0,1,358.12,109.64Z"/></g><g id="_Group_14" data-name="&lt;Group&gt;"><path id="_Compound_Path_4" data-name="&lt;Compound Path&gt;" class="cls-22" d="M361,93.36a5,5,0,0,0-3.88-4.15,13.27,13.27,0,0,0-2.67-.3c-.58,0-.79.17-.75.77.21,3.83.4,7.67.39,11.51a.76.76,0,0,0,.62.85c2.86.46,6-.83,6.37-4a17.73,17.73,0,0,0,.16-2.2A8.76,8.76,0,0,0,361,93.36Zm-3.38,4.74a1,1,0,0,1-.46.59c-.36.23-.57.23-.57-.3,0-1.85,0-3.71,0-5.7a2.22,2.22,0,0,1,1.54,2.11A8,8,0,0,1,357.66,98.1Z"/></g><g id="_Group_15" data-name="&lt;Group&gt;"><path id="_Compound_Path_5" data-name="&lt;Compound Path&gt;" class="cls-25" d="M370,108.24a4.75,4.75,0,0,0-3.29-4.2,9.41,9.41,0,0,0-2.46-.42c-1.39-.07-1.37-.06-1.31,1.31.13,2.75.22,5.5.34,8.52,0,.5,0,1.27,0,2a.78.78,0,0,0,.52.82,5.48,5.48,0,0,0,5.39-1.78C370.5,112.58,370.35,110.42,370,108.24Zm-3.36,4.35a.75.75,0,0,1-.78.59c-.35-.07-.16-.48-.16-.74,0-1.69,0-3.38,0-5.19a2.2,2.2,0,0,1,1.5,2.05A7.65,7.65,0,0,1,366.66,112.6Z"/></g><g id="_Group_16" data-name="&lt;Group&gt;"><path id="_Compound_Path_6" data-name="&lt;Compound Path&gt;" class="cls-22" d="M344.5,100.33c-.09-.37-.17-.75-.23-1.13a82.46,82.46,0,0,0-2.09-9c-.31-1.11-1.13-1.11-2-1.06s-1.5.21-1.75,1.24c-.78,3.27-1.38,6.57-2,9.87-.15.81,0,1.42.87,1.66a1.48,1.48,0,0,0,1.92-.78,4.21,4.21,0,0,0,.44-1.66c0-.34.15-.57.52-.51s.81-.18.93.4c.08.38.15.76.26,1.12.43,1.43.67,1.62,1.88,1.53C344.72,101.94,344.85,101.75,344.5,100.33Zm-3.71-3.69a.91.91,0,0,1-.55,0c-.22-.09-.15-.31-.11-.5.13-.55.24-1.1.4-1.83.15.76.26,1.31.37,1.87C340.94,96.34,341,96.56,340.79,96.64Z"/></g><g id="_Group_17" data-name="&lt;Group&gt;"><path id="_Compound_Path_7" data-name="&lt;Compound Path&gt;" class="cls-23" d="M345.33,86.83c-.3-.67-.6-1.34-.93-2-.13-.26-.18-.47,0-.69a3.31,3.31,0,0,0,.7-2.54c0-.49-.06-.81-.07-1.13-.1-2.49-1.91-3.29-3.8-3.25-.48,0-1,.08-1.43.06-.78,0-1.14.19-1.15,1.08,0,2.92.39,5.82.1,8.74a1.08,1.08,0,0,0,1,1.23,1.05,1.05,0,0,0,1.29-1c.06-.51.13-1,.2-1.53a.35.35,0,0,1,.37-.35.34.34,0,0,1,.34.28c.07.25.16.49.23.73.52,1.71.57,1.75,2.32,1.68C345.4,88.13,345.7,87.65,345.33,86.83ZM342.39,81a2.57,2.57,0,0,1-.42,1.52.44.44,0,0,1-.4.2c-.22,0-.17-.22-.19-.37,0-.47-.09-.95-.13-1.46.16-.28-.33-.91.38-.93S342.47,80.42,342.39,81Z"/></g><g id="_Group_18" data-name="&lt;Group&gt;"><path id="_Compound_Path_8" data-name="&lt;Compound Path&gt;" class="cls-23" d="M352.69,86.88c-.08-.5-.21-1-.3-1.5a70.61,70.61,0,0,0-1.67-7c-.26-.91-.93-.87-1.59-.85s-1.24.12-1.46.94-.43,1.93-.62,2.91c-.35,1.79-.72,3.57-1.09,5.35-.06.67.13,1.17.84,1.33a1.2,1.2,0,0,0,1.55-.76,6.68,6.68,0,0,0,.32-1.11c.07-.33.09-.62.56-.59s.62.14.7.59a6.12,6.12,0,0,0,.5,1.44c.42.91,1.25.51,1.88.42S352.77,87.34,352.69,86.88Zm-3.33-3.16c-.28,0-.4-.16-.33-.45a3.64,3.64,0,0,1,.38-1.34c.11.53.2.93.27,1.34C349.73,83.52,349.69,83.74,349.36,83.72Z"/></g></g><g id="BOTON"><path id="sombra" class="cls-26" d="M383.78,303.09c0,3.38-21.29,55-47.56,55s-47.56-51.61-47.56-55S310,297,336.22,297,383.78,299.7,383.78,303.09Z"/><g id="_Group_19" data-name="&lt;Group&gt;"><g id="_Group_20" data-name="&lt;Group&gt;"><g id="_Group_21" data-name="&lt;Group&gt;"><g id="_Group_22" data-name="&lt;Group&gt;"><g id="_Group_23" data-name="&lt;Group&gt;"><path id="_Path_20" data-name="&lt;Path&gt;" class="cls-27" d="M366,312.33c0,11.73-15.07,12.77-29.81,12.77s-29.81-1-29.81-12.77,15.07-12.77,29.81-12.77S366,300.6,366,312.33Z"/><path id="_Path_21" data-name="&lt;Path&gt;" class="cls-28" d="M364.94,312.33c0,11.06-14.81,12.25-28.72,12.25s-28.72-1.19-28.72-12.25,14.81-12.25,28.72-12.25S364.94,301.26,364.94,312.33Z"/><path id="_Compound_Path_9" data-name="&lt;Compound Path&gt;" class="cls-29" d="M314.54,303.95c-8,4.62-6.6,16.45,5.32,18.64,10.15,1.87,30,2.76,38-1.88s6.59-16.45-5.32-18.64C342.43,300.2,322.61,299.3,314.54,303.95Zm42.76,16.43c-8.09,4.55-26.86,3.74-37,1.85-11.44-2.13-13.07-13.51-5.18-17.94,8.09-4.55,26.86-3.74,37-1.85C363.56,304.56,365.19,315.94,357.3,320.38Z"/></g></g><path id="_Path_22" data-name="&lt;Path&gt;" class="cls-30" d="M307.56,313.48c0,.17,0,.33.06.49a9.47,9.47,0,0,0,1.5,3.83c3,4.3,9.88,5.92,17.64,6.49,8.55-7.75,18-15,25.81-23A80.69,80.69,0,0,0,338,300.09h-1.82c-9.55,0-19.51.56-24.83,4.48a9.23,9.23,0,0,0-3.89,7.77c0,.31,0,.6,0,.89C307.55,313.31,307.56,313.39,307.56,313.48Z"/></g><path id="_Path_23" data-name="&lt;Path&gt;" class="cls-31" d="M317.52,308.52c-7,2.68-13.72,2.67-15,0s3.36-7.06,10.37-9.75,13.71-2.68,15,0S324.53,305.84,317.52,308.52Z"/><path id="_Path_24" data-name="&lt;Path&gt;" class="cls-32" d="M360.56,326.17c-6.13,2.13-12,1.69-13.19-1s2.89-6.58,9-8.72,12-1.69,13.19,1S366.7,324,360.56,326.17Z"/></g></g><g id="_Group_24" data-name="&lt;Group&gt;"><text class="cls-33" transform="translate(315.61 317.98)">¡ Únete !</text></g></g></g></g></g><g id="HEAD"><g id="voluntario" class="cls-34"><path id="_Path_25" data-name="&lt;Path&gt;" class="cls-35" d="M574.5,125.09c-2.43-1.06-3.8.15-3.8,2.74l.61,2.43c.46,2.74,1.37,5.63,1.52,8.36a71.31,71.31,0,0,1-5.93,33.3,132.79,132.79,0,0,1-23,36.19l-.76,1.52a3.19,3.19,0,0,0-.91-.61l1.83-11.4,4.41-23.87a211.11,211.11,0,0,0,3.65-22.2,6.66,6.66,0,0,0-3.5-6.69,16.58,16.58,0,0,0-3.5-1.37c-4.26-1.37-5.93-.46-6.84,4-1.22,5-2.58,10-3.65,15.05-1.52,8.36-3,16.73-4.41,25.09a125.1,125.1,0,0,0-.91,26.15c.15,3.19,1.52,5.63,4.71,6.69,4.56,1.67,9,1.37,12.77-2a33.17,33.17,0,0,0,3.5-3.19A147.79,147.79,0,0,0,571.92,185c6.23-11.71,10.34-24.18,11.1-37.56a35.65,35.65,0,0,0-2.74-16.88A9.76,9.76,0,0,0,574.5,125.09Z"/><path id="_Compound_Path_10" data-name="&lt;Compound Path&gt;" class="cls-36" d="M876.82,195.29a3.23,3.23,0,0,1-.84-2.88,10.78,10.78,0,0,1,.36-1.92c1.2-4.69,2.4-9.37,4-14.06,1.08-3.48,2.52-6.85,3.85-10.21a3.08,3.08,0,0,0-.12-3.49,8.93,8.93,0,0,0-5.17-3.37,2.47,2.47,0,0,0-3,1c-1,1.32-1.8,2.64-2.76,3.85a36.25,36.25,0,0,1-2.64,3.37c-2.52,2.64-5.29,5-7.57,7.81-4.57,5.41-8.89,10.94-13.22,16.46l-1.08,1.32a3.84,3.84,0,0,1,.36-1.68c2.88-7.69,5.89-15.26,8.89-23a2.82,2.82,0,0,0-.12-2.76,9.91,9.91,0,0,0-6.25-4.69c-1.44-.48-2.16-.12-3,1.32a6.66,6.66,0,0,0-1.08,2q-4.15,8.94-7.72,18.06l-19.32,19.32-1.2,1.08-.48-.24c.6-2.16,1.2-4.21,1.92-6.25,1.8-5,3.49-10.1,5.41-15.14a2.94,2.94,0,0,0-1-3.61,9.54,9.54,0,0,0-5.17-2.52,2.68,2.68,0,0,0-3.12,1.44,10.86,10.86,0,0,1-3.36,4.33,7.29,7.29,0,0,0-1.44,1.8c-1.44,1.8-2.88,3.72-4.21,5.65a158.73,158.73,0,0,1-16.34,19.59l-1.32,1.2a9.82,9.82,0,0,1-.12-1.68,13.26,13.26,0,0,1,.24-2.16,57.71,57.71,0,0,1,15-28.84,42,42,0,0,1,10.58-8.29,11.88,11.88,0,0,1,6.73-1.56c2.28.12,2.52.36,2.76,2.64a5.46,5.46,0,0,0,1.32,3.72c1.8,1.92,3.73,1.56,4.57-1a4.69,4.69,0,0,0-.12-3.6,13.13,13.13,0,0,0-3.49-5.29c-4.57-4.45-9.73-6.13-15.86-4.21a25.72,25.72,0,0,0-9.49,5.41A62.24,62.24,0,0,0,789,180.63a58,58,0,0,0-5.67,12.73l-10.92,17.56a3.27,3.27,0,0,1-1.68,1.68c3.61-21.39,12.5-41.22,21.39-60.93a6.15,6.15,0,0,1,1.08-.24,135.51,135.51,0,0,1,19.83.84,20.05,20.05,0,0,0,3.85.24,2.8,2.8,0,0,0,2.52-1.56c.6-1,0-1.68-.48-2.4a11.26,11.26,0,0,0-5.89-3.85,58.37,58.37,0,0,0-6.61-1.2l-10-1,2.52-4.69c.84-1.8.84-2.64-.48-3.73a14.35,14.35,0,0,0-3.61-2.16c-2.88-1.08-4.45-.6-6.25,2.28-1.8,2.52-3.25,5-4.81,7.57a2,2,0,0,1-1.8,1.32c-1.92,0-3.85.24-5.89.36-2.76.24-5.41.36-7.81.72-1.68.12-2.16.72-2.16,2.28a7.67,7.67,0,0,0,1,4.33,3.87,3.87,0,0,0,4.69,2.16c1.92-.36,4.09-.48,6.49-.72a17.21,17.21,0,0,1-1,2,249,249,0,0,0-10.34,25q-1.73,5.09-3.1,10.24L747,216.32a61.23,61.23,0,0,1-7.45,9.25c-.24.36-.6.48-1.32,1.08.48-2.16.72-4,1.2-5.65,2.64-10,6.37-19.47,10.09-29.08,2.88-7.45,5.89-14.9,8.05-22.59a30,30,0,0,0,1.08-5.53,3,3,0,0,0-1.2-3,8.81,8.81,0,0,0-5.17-1.92,2.47,2.47,0,0,0-2.16,1c-10.22,10.22-21.27,19.71-30.4,32.21l-1.44,1.8c.12-.84.24-1.08.24-1.44,1.08-3.37,2.28-6.85,3.25-10.22l5-16.58a3,3,0,0,0-1.08-3.37,8.65,8.65,0,0,0-5.29-2.16,2.87,2.87,0,0,0-2.88,1.2,40.16,40.16,0,0,0-3,4.81,138.74,138.74,0,0,0-7.77,19.62l-.28.45c-4.45,7-8.65,14.06-13.58,20.67L691,209.35a6.76,6.76,0,0,0-.12-.84c.84-3.37,1.68-6.85,2.64-10.22,2.28-7.93,4.69-15.62,7-23.55.84-3.12,1.44-6.25,2-9.37.36-1.92-.12-3.37-1.92-4.21a12.9,12.9,0,0,0-5-1.2A3.48,3.48,0,0,0,692,162.6c-.6,1.92-1.2,3.85-1.92,5.77-.72,2.16-1.2,4.45-2.28,6.25-5.65,8.89-11.42,17.79-17.18,26.56-1.92,2.88-4.21,5.53-6.37,8.29a19.06,19.06,0,0,1-1.56,1.56l-.48-.24c.84-3.85,1.44-7.57,2.4-11.3,3-11.54,5.77-23.19,9.73-34.37.72-1.8.36-2.76-1.08-3.85a9.77,9.77,0,0,0-6.25-2,3.52,3.52,0,0,0-3.73,2.52l-.72,2c-1.9,6.7-4,13.33-5.77,20.07-2.28,3.36-4.45,6.85-6.61,10.33-3.73,5.89-7.33,11.9-11.9,17.18-.6.72-1.32,1.32-2,2l-.36-.24.24-2.76a202.84,202.84,0,0,1,4.93-24,4.05,4.05,0,0,1,1.32-2c3.25-2.88,6.49-5.65,9.25-8.65a134.74,134.74,0,0,0,24.76-39.18,32.73,32.73,0,0,0,2.64-13.1c-.12-4.33-2.64-7.09-7-7.93-2.88-.6-5.53.36-7.93,1.68a24.44,24.44,0,0,0-6.25,5.41,83.9,83.9,0,0,0-10.82,16.1,249.77,249.77,0,0,0-11.42,25.24c-2.27,5.82-4.42,11.67-6.18,17.62-3.85,5.15-9.7,10.51-14.73,11.7l2-4.45a35.88,35.88,0,0,0,3.49-18.75c-.6-7.81-4.33-13.58-11.42-16.95a14.2,14.2,0,0,0-15,1.32,24.19,24.19,0,0,0-8.17,10.22,25.58,25.58,0,0,1-4.81,7.45,35.86,35.86,0,0,0-8.41,24.28c0,9.49,6.85,18.39,16.58,19.83a13.5,13.5,0,0,0,10.34-3.12A51.92,51.92,0,0,0,609.44,202a5.26,5.26,0,0,1,2.76-2,44.16,44.16,0,0,0,5.89-2.76,46.88,46.88,0,0,0,9.23-7.62,98.21,98.21,0,0,0-2.14,13.27,35.52,35.52,0,0,0,.24,10.09c.6,2.76,1.68,5.29,4.69,6.37a9.37,9.37,0,0,0,9.73-1.56,17.31,17.31,0,0,0,3.24-3.37c1.92-2.64,4-5.41,5.77-8.29l4.76-8.39a53.57,53.57,0,0,0-.79,9.71,32.14,32.14,0,0,0,1,5.77,5.92,5.92,0,0,0,4.45,4.09,8.35,8.35,0,0,0,9.13-2.4,55.49,55.49,0,0,0,4.81-5.77c3.25-4.93,6.37-10,9.49-15a19.15,19.15,0,0,1,1.32-1.92l-2.76,14.18a25.83,25.83,0,0,0,.12,9.61,3.84,3.84,0,0,0,2.88,3.37c3.49,1.2,6.13.84,8.41-2.16s4.93-6.25,7.09-9.61q2-3,3.91-6.12a61,61,0,0,0-1,10.93c0,3,.72,4,3.61,4.69a18.59,18.59,0,0,0,2.52.48,3.31,3.31,0,0,0,3.48-1.92l1.44-2.28c4.93-7.81,9.73-15.74,14.9-23.43a98.58,98.58,0,0,1,14.78-17.55l2-1.8c.12.12.12.24.24.24a4.27,4.27,0,0,1-.48,1.08L738.26,185c-3.85,8.89-7.21,17.79-9,27.28a41.65,41.65,0,0,0-1,11.54c.36,2.88,1.2,5.53,3.73,7.21a8.72,8.72,0,0,0,11.66-1.56A95,95,0,0,0,754,214.76q3.56-6.32,7.16-12.6c-.51,3.15-.91,6.31-1.16,9.48a42.71,42.71,0,0,0,.36,9.61,4.22,4.22,0,0,0,3.85,3.61,9.12,9.12,0,0,0,9.13-3.61,80.94,80.94,0,0,0,7.09-10.94l1.23-2.28a18,18,0,0,0,.45,2,10.36,10.36,0,0,0,6.37,6.85,5.51,5.51,0,0,0,6-.84c.72-.72,1.56-1.32,2.28-2.16l9.61-10.82,1.44-1.56a10.71,10.71,0,0,0-.36,2.28c-.36,2.16-.72,4.33-1,6.49a4.4,4.4,0,0,0,1.68,4.21c3.12,2.28,6.13,1.92,8.65-1l5.77-6.85c4.67-5.16,9.25-10.4,13.82-15.59-1.61,4.59-3.11,9.22-4.44,13.9-1.68,5.77-3.12,11.66-4.57,17.43a4.06,4.06,0,0,0,.12,2.4c1.08,1.8,3,2.4,5,2.64,1.68.24,2.4-1,3-2.16l.48-.72,10.09-17.06a215.36,215.36,0,0,1,18.51-26.68c.72-1,1.56-1.8,2.4-2.76a.42.42,0,0,0,.24.12,15.45,15.45,0,0,1-.48,2.28c-1,4.33-.12,8.53,1.44,12.62a9.06,9.06,0,0,0,5.53,5.17,5.5,5.5,0,0,0,2.4.24,1.52,1.52,0,0,0,1.32-2.28A1.87,1.87,0,0,0,876.82,195.29Zm-213.07-65.5a61.71,61.71,0,0,1,4.45-6.49,10.37,10.37,0,0,1,5-3.85c2.16.36,1.08,6.49-.24,10.81a50,50,0,0,1-4.93,11.66,194.9,194.9,0,0,1-22.59,31.73A205.2,205.2,0,0,1,663.76,129.79Zm-66,74c-5.53,5.53-13,9-13.94-1.44a33.53,33.53,0,0,1,1.8-13.1c3.36,6.25,8.29,9.73,14.9,11.42ZM608.6,188.2c-1.44,2.76-3.12,5.41-4.69,8.05a2,2,0,0,1-2.28,1.08,9,9,0,0,1-6.61-3.61c-2.76-3.24-3.85-7.09-4.57-11.06v-.6c-.84-2.64.48-4.33,2.52-5.77a3.19,3.19,0,0,0,.72-.6c1.92-1.2,2-2.16.6-3.85-.6-.84-1.32-1.68-2.16-2.64a26.88,26.88,0,0,1,7.33-10,11.34,11.34,0,0,1,6.37-2.76,4.12,4.12,0,0,1,3.6,1.44,17.22,17.22,0,0,1,3.73,10.94A40.26,40.26,0,0,1,608.6,188.2Z"/><path id="_Path_26" data-name="&lt;Path&gt;" class="cls-36" d="M909.27,158.15c.84.12,1.32-.24,1.44-1.2a13.48,13.48,0,0,1,1-3.12,46,46,0,0,1,3-5.29,2.17,2.17,0,0,0,0-2.52,8.48,8.48,0,0,0-5.65-4.09,1.85,1.85,0,0,0-2.4,1.44c-.84,2.16-1.68,4.33-2.4,6.61a6.66,6.66,0,0,0-.36,1.8C903.74,154.91,906.62,158,909.27,158.15Z"/><path id="_Compound_Path_11" data-name="&lt;Compound Path&gt;" class="cls-36" d="M971.52,180.75a1.46,1.46,0,0,0-1.8.72c-3.85,5.17-9.73,10.57-14.78,11.78l2-4.45a35.87,35.87,0,0,0,3.49-18.75c-.6-7.81-4.33-13.58-11.42-16.95a14.2,14.2,0,0,0-15,1.32,24.2,24.2,0,0,0-8.17,10.22,25.57,25.57,0,0,1-4.81,7.45,35,35,0,0,0-5.94,10l-.79,1c-5.89,8.65-12.74,16.58-19.23,24.64-1.56,2-3.37,3.85-5,5.65l-1.56,1.32c.24-1.56.36-2.64.6-3.61a203.78,203.78,0,0,1,9.37-27.76l6.37-14.18c.84-1.68.72-2.4-.6-3.61a8.42,8.42,0,0,0-4.33-2.28,2.9,2.9,0,0,0-2.88,1.08l-2.16,3a109.26,109.26,0,0,0-13.94,34,32,32,0,0,0-.6,12.62,6.71,6.71,0,0,0,2,3.85,7.73,7.73,0,0,0,10.34-.36,65.61,65.61,0,0,0,5.41-6.13L913,190.66a41.28,41.28,0,0,0-.32,5.71c0,9.49,6.85,18.39,16.58,19.83a13.5,13.5,0,0,0,10.33-3.12A51.89,51.89,0,0,0,949.65,202a5.27,5.27,0,0,1,2.76-2,44.2,44.2,0,0,0,5.89-2.76c5.89-3.61,10.46-8.65,14.78-13.94a7.64,7.64,0,0,0,.72-1.44C973,181.47,972.24,181,971.52,180.75ZM938,203.82c-5.53,5.53-13,9-13.94-1.44a33.55,33.55,0,0,1,1.8-13.1c3.37,6.25,8.29,9.73,14.9,11.42ZM948.8,188.2c-1.44,2.76-3.12,5.41-4.69,8.05a2,2,0,0,1-2.28,1.08,9,9,0,0,1-6.61-3.61c-2.76-3.24-3.85-7.09-4.57-11.06v-.6c-.84-2.64.48-4.33,2.52-5.77a3.2,3.2,0,0,0,.72-.6c1.92-1.2,2-2.16.6-3.85-.6-.84-1.32-1.68-2.16-2.64a26.89,26.89,0,0,1,7.33-10,11.34,11.34,0,0,1,6.37-2.76,4.12,4.12,0,0,1,3.61,1.44,17.22,17.22,0,0,1,3.73,10.94A40.26,40.26,0,0,1,948.8,188.2Z"/></g><g id="voluntario-2" data-name="voluntario"><path id="_Path_27" data-name="&lt;Path&gt;" class="cls-37" d="M573.5,119.09c-2.43-1.06-3.8.15-3.8,2.74l.61,2.43c.46,2.74,1.37,5.63,1.52,8.36a71.31,71.31,0,0,1-5.93,33.3,132.79,132.79,0,0,1-23,36.19l-.76,1.52a3.19,3.19,0,0,0-.91-.61l1.83-11.4,4.41-23.87a211.11,211.11,0,0,0,3.65-22.2,6.66,6.66,0,0,0-3.5-6.69,16.58,16.58,0,0,0-3.5-1.37c-4.26-1.37-5.93-.46-6.84,4-1.22,5-2.58,10-3.65,15.05-1.52,8.36-3,16.73-4.41,25.09-1.37,8.67-1.37,8.33-.91,17.15.15,3.19,1.52,14.63,4.71,15.7,4.56,1.67,9,1.37,12.77-2a33.17,33.17,0,0,0,3.5-3.19A147.79,147.79,0,0,0,570.92,179c6.23-11.71,10.34-24.18,11.1-37.56a35.65,35.65,0,0,0-2.74-16.88A9.76,9.76,0,0,0,573.5,119.09Z"/><path id="_Compound_Path_12" data-name="&lt;Compound Path&gt;" class="cls-37" d="M875.82,189.28a3.23,3.23,0,0,1-.84-2.88,10.78,10.78,0,0,1,.36-1.92c1.2-4.69,2.4-9.37,4-14.06,1.08-3.48,2.52-6.85,3.85-10.21a3.08,3.08,0,0,0-.12-3.49,8.93,8.93,0,0,0-5.17-3.37,2.47,2.47,0,0,0-3,1c-1,1.32-1.8,2.64-2.76,3.85a36.25,36.25,0,0,1-2.64,3.37c-2.52,2.64-5.29,5-7.57,7.81-4.57,5.41-8.89,10.94-13.22,16.46l-1.08,1.32a3.84,3.84,0,0,1,.36-1.68c2.88-7.69,5.89-15.26,8.89-23a2.82,2.82,0,0,0-.12-2.76,9.91,9.91,0,0,0-6.25-4.69c-1.44-.48-2.16-.12-3,1.32a6.66,6.66,0,0,0-1.08,2q-4.15,8.94-7.72,18.06l-19.32,19.32-1.2,1.08-.48-.24c.6-2.16,1.2-4.21,1.92-6.25,1.8-5,3.49-10.1,5.41-15.14a2.94,2.94,0,0,0-1-3.61,9.54,9.54,0,0,0-5.17-2.52,2.68,2.68,0,0,0-3.12,1.44,10.86,10.86,0,0,1-3.36,4.33,7.29,7.29,0,0,0-1.44,1.8c-1.44,1.8-2.88,3.72-4.21,5.65a158.73,158.73,0,0,1-16.34,19.59l-1.32,1.2a9.82,9.82,0,0,1-.12-1.68,13.26,13.26,0,0,1,.24-2.16,57.71,57.71,0,0,1,15-28.84,42,42,0,0,1,10.58-8.29,11.88,11.88,0,0,1,6.73-1.56c2.28.12,2.52.36,2.76,2.64a5.46,5.46,0,0,0,1.32,3.72c1.8,1.92,3.73,1.56,4.57-1a4.69,4.69,0,0,0-.12-3.6,13.13,13.13,0,0,0-3.49-5.29c-4.57-4.45-9.73-6.13-15.86-4.21a25.72,25.72,0,0,0-9.49,5.41A62.24,62.24,0,0,0,788,174.62a58,58,0,0,0-5.67,12.73l-10.92,17.56a3.27,3.27,0,0,1-1.68,1.68c3.61-21.39,12.5-41.22,21.39-60.93a6.15,6.15,0,0,1,1.08-.24,135.51,135.51,0,0,1,19.83.84,20.05,20.05,0,0,0,3.85.24,2.8,2.8,0,0,0,2.52-1.56c.6-1,0-1.68-.48-2.4a11.26,11.26,0,0,0-5.89-3.85,58.37,58.37,0,0,0-6.61-1.2l-10-1,2.52-4.69c.84-1.8.84-2.64-.48-3.73a14.35,14.35,0,0,0-3.61-2.16c-2.88-1.08-4.45-.6-6.25,2.28-1.8,2.52-3.25,5-4.81,7.57a2,2,0,0,1-1.8,1.32c-1.92,0-3.85.24-5.89.36-2.76.24-5.41.36-7.81.72-1.68.12-2.16.72-2.16,2.28a7.67,7.67,0,0,0,1,4.33,3.87,3.87,0,0,0,4.69,2.16c1.92-.36,4.09-.48,6.49-.72a17.21,17.21,0,0,1-1,2,249,249,0,0,0-10.34,25q-1.73,5.09-3.1,10.24L746,210.31a61.23,61.23,0,0,1-7.45,9.25c-.24.36-.6.48-1.32,1.08.48-2.16.72-4,1.2-5.65,2.64-10,6.37-19.47,10.09-29.08,2.88-7.45,5.89-14.9,8.05-22.59a30,30,0,0,0,1.08-5.53,3,3,0,0,0-1.2-3,8.81,8.81,0,0,0-5.17-1.92,2.47,2.47,0,0,0-2.16,1C738.95,164,727.89,173.54,718.76,186l-1.44,1.8c.12-.84.24-1.08.24-1.44,1.08-3.37,2.28-6.85,3.25-10.22l5-16.58a3,3,0,0,0-1.08-3.37,8.65,8.65,0,0,0-5.29-2.16,2.87,2.87,0,0,0-2.88,1.2,40.16,40.16,0,0,0-3,4.81,138.74,138.74,0,0,0-7.77,19.62l-.28.45c-4.45,7-8.65,14.06-13.58,20.67L690,203.34a6.76,6.76,0,0,0-.12-.84c.84-3.37,1.68-6.85,2.64-10.22,2.28-7.93,4.69-15.62,7-23.55.84-3.12,1.44-6.25,2-9.37.36-1.92-.12-3.37-1.92-4.21a12.9,12.9,0,0,0-5-1.2A3.48,3.48,0,0,0,691,156.6c-.6,1.92-1.2,3.85-1.92,5.77-.72,2.16-1.2,4.45-2.28,6.25-5.65,8.89-11.42,17.79-17.18,26.56-1.92,2.88-4.21,5.53-6.37,8.29a19.06,19.06,0,0,1-1.56,1.56l-.48-.24c.84-3.85,1.44-7.57,2.4-11.3,3-11.54,5.77-23.19,9.73-34.37.72-1.8.36-2.76-1.08-3.85a9.77,9.77,0,0,0-6.25-2,3.52,3.52,0,0,0-3.73,2.52l-.72,2c-1.9,6.7-4,13.33-5.77,20.07-2.28,3.36-4.45,6.85-6.61,10.33-3.73,5.89-7.33,11.9-11.9,17.18-.6.72-1.32,1.32-2,2l-.36-.24.24-2.76a202.84,202.84,0,0,1,4.93-24,4.05,4.05,0,0,1,1.32-2c3.25-2.88,6.49-5.65,9.25-8.65a134.74,134.74,0,0,0,24.76-39.18,32.73,32.73,0,0,0,2.64-13.1c-.12-4.33-2.64-7.09-7-7.93-2.88-.6-5.53.36-7.93,1.68a24.44,24.44,0,0,0-6.25,5.41,83.9,83.9,0,0,0-10.82,16.1,249.77,249.77,0,0,0-11.42,25.24c-2.27,5.82-4.42,11.67-6.18,17.62-3.85,5.15-9.7,10.51-14.73,11.7l2-4.45A35.88,35.88,0,0,0,619.25,164c-.6-7.81-4.33-13.58-11.42-16.95a14.2,14.2,0,0,0-15,1.32,24.19,24.19,0,0,0-8.17,10.22,25.58,25.58,0,0,1-4.81,7.45,35.86,35.86,0,0,0-8.41,24.28c0,9.49,6.85,18.39,16.58,19.83a13.5,13.5,0,0,0,10.34-3.12A51.92,51.92,0,0,0,608.44,196a5.26,5.26,0,0,1,2.76-2,44.16,44.16,0,0,0,5.89-2.76,46.88,46.88,0,0,0,9.23-7.62,98.21,98.21,0,0,0-2.14,13.27,35.52,35.52,0,0,0,.24,10.09c.6,2.76,1.68,5.29,4.69,6.37a9.37,9.37,0,0,0,9.73-1.56,17.31,17.31,0,0,0,3.24-3.37c1.92-2.64,4-5.41,5.77-8.29l4.76-8.39a53.57,53.57,0,0,0-.79,9.71,32.14,32.14,0,0,0,1,5.77,5.92,5.92,0,0,0,4.45,4.09,8.35,8.35,0,0,0,9.13-2.4,55.49,55.49,0,0,0,4.81-5.77c3.25-4.93,6.37-10,9.49-15a19.15,19.15,0,0,1,1.32-1.92l-2.76,14.18a25.83,25.83,0,0,0,.12,9.61,3.84,3.84,0,0,0,2.88,3.37c3.49,1.2,6.13.84,8.41-2.16s4.93-6.25,7.09-9.61q2-3,3.91-6.12a61,61,0,0,0-1,10.93c0,3,.72,4,3.61,4.69a18.59,18.59,0,0,0,2.52.48,3.31,3.31,0,0,0,3.48-1.92l1.44-2.28c4.93-7.81,9.73-15.74,14.9-23.43a98.58,98.58,0,0,1,14.78-17.55l2-1.8c.12.12.12.24.24.24a4.27,4.27,0,0,1-.48,1.08l-5.89,13.1c-3.85,8.89-7.21,17.79-9,27.28a41.65,41.65,0,0,0-1,11.54c.36,2.88,1.2,5.53,3.73,7.21a8.72,8.72,0,0,0,11.66-1.56A95,95,0,0,0,753,208.75q3.56-6.32,7.16-12.6c-.51,3.15-.91,6.31-1.16,9.48a42.71,42.71,0,0,0,.36,9.61,4.22,4.22,0,0,0,3.85,3.61,9.12,9.12,0,0,0,9.13-3.61,80.94,80.94,0,0,0,7.09-10.94l1.23-2.28a18,18,0,0,0,.45,2,10.36,10.36,0,0,0,6.37,6.85,5.51,5.51,0,0,0,6-.84c.72-.72,1.56-1.32,2.28-2.16l9.61-10.82,1.44-1.56a10.71,10.71,0,0,0-.36,2.28c-.36,2.16-.72,4.33-1,6.49a4.4,4.4,0,0,0,1.68,4.21c3.12,2.28,6.13,1.92,8.65-1l5.77-6.85c4.67-5.16,9.25-10.4,13.82-15.59-1.61,4.59-3.11,9.22-4.44,13.9-1.68,5.77-3.12,11.66-4.57,17.43a4.06,4.06,0,0,0,.12,2.4c1.08,1.8,3,2.4,5,2.64,1.68.24,2.4-1,3-2.16l.48-.72,10.09-17.06a215.36,215.36,0,0,1,18.51-26.68c.72-1,1.56-1.8,2.4-2.76a.42.42,0,0,0,.24.12,15.45,15.45,0,0,1-.48,2.28c-1,4.33-.12,8.53,1.44,12.62a9.06,9.06,0,0,0,5.53,5.17,5.5,5.5,0,0,0,2.4.24,1.52,1.52,0,0,0,1.32-2.28A1.87,1.87,0,0,0,875.82,189.28Zm-213.07-65.5a61.71,61.71,0,0,1,4.45-6.49,10.37,10.37,0,0,1,5-3.85c2.16.36,1.08,6.49-.24,10.81a50,50,0,0,1-4.93,11.66,194.9,194.9,0,0,1-22.59,31.73A205.2,205.2,0,0,1,662.76,123.79Zm-66,74c-5.53,5.53-13,9-13.94-1.44a33.53,33.53,0,0,1,1.8-13.1c3.36,6.25,8.29,9.73,14.9,11.42Zm10.82-15.62c-1.44,2.76-3.12,5.41-4.69,8.05a2,2,0,0,1-2.28,1.08,9,9,0,0,1-6.61-3.61c-2.76-3.24-3.85-7.09-4.57-11.06v-.6c-.84-2.64.48-4.33,2.52-5.77a3.19,3.19,0,0,0,.72-.6c1.92-1.2,2-2.16.6-3.85-.6-.84-1.32-1.68-2.16-2.64a26.88,26.88,0,0,1,7.33-10,11.34,11.34,0,0,1,6.37-2.76,4.12,4.12,0,0,1,3.6,1.44,17.22,17.22,0,0,1,3.73,10.94A40.26,40.26,0,0,1,607.6,182.19Z"/><path id="_Path_28" data-name="&lt;Path&gt;" class="cls-37" d="M908.27,152.15c.84.12,1.32-.24,1.44-1.2a13.48,13.48,0,0,1,1-3.12,46,46,0,0,1,3-5.29,2.17,2.17,0,0,0,0-2.52,8.48,8.48,0,0,0-5.65-4.09,1.85,1.85,0,0,0-2.4,1.44c-.84,2.16-1.68,4.33-2.4,6.61a6.66,6.66,0,0,0-.36,1.8C902.74,148.91,905.62,152,908.27,152.15Z"/><path id="_Compound_Path_13" data-name="&lt;Compound Path&gt;" class="cls-37" d="M970.52,174.74a1.46,1.46,0,0,0-1.8.72c-3.85,5.17-9.73,10.57-14.78,11.78l2-4.45A35.87,35.87,0,0,0,959.46,164c-.6-7.81-4.33-13.58-11.42-16.95a14.2,14.2,0,0,0-15,1.32,24.2,24.2,0,0,0-8.17,10.22,25.57,25.57,0,0,1-4.81,7.45,35,35,0,0,0-5.94,10l-.79,1c-5.89,8.65-12.74,16.58-19.23,24.64-1.56,2-3.37,3.85-5,5.65l-1.56,1.32c.24-1.56.36-2.64.6-3.61a203.78,203.78,0,0,1,9.37-27.76l6.37-14.18c.84-1.68.72-2.4-.6-3.61a8.42,8.42,0,0,0-4.33-2.28,2.9,2.9,0,0,0-2.88,1.08l-2.16,3a109.26,109.26,0,0,0-13.94,34,32,32,0,0,0-.6,12.62,6.71,6.71,0,0,0,2,3.85,7.73,7.73,0,0,0,10.34-.36,65.61,65.61,0,0,0,5.41-6.13L912,184.66a41.28,41.28,0,0,0-.32,5.71c0,9.49,6.85,18.39,16.58,19.83a13.5,13.5,0,0,0,10.33-3.12A51.89,51.89,0,0,0,948.64,196a5.27,5.27,0,0,1,2.76-2,44.2,44.2,0,0,0,5.89-2.76c5.89-3.61,10.46-8.65,14.78-13.94a7.64,7.64,0,0,0,.72-1.44C972,175.46,971.24,175,970.52,174.74ZM937,197.82c-5.53,5.53-13,9-13.94-1.44a33.55,33.55,0,0,1,1.8-13.1c3.37,6.25,8.29,9.73,14.9,11.42Zm10.81-15.62c-1.44,2.76-3.12,5.41-4.69,8.05a2,2,0,0,1-2.28,1.08,9,9,0,0,1-6.61-3.61c-2.76-3.24-3.85-7.09-4.57-11.06v-.6c-.84-2.64.48-4.33,2.52-5.77a3.2,3.2,0,0,0,.72-.6c1.92-1.2,2-2.16.6-3.85-.6-.84-1.32-1.68-2.16-2.64a26.89,26.89,0,0,1,7.33-10,11.34,11.34,0,0,1,6.37-2.76,4.12,4.12,0,0,1,3.61,1.44,17.22,17.22,0,0,1,3.73,10.94A40.26,40.26,0,0,1,947.8,182.19Z"/></g><g id="da_click_para_ser" data-name="da click para ser"><g id="_Group_25" data-name="&lt;Group&gt;"><text class="cls-38" transform="translate(531.35 103.82)">D<tspan class="cls-39" x="24.56" y="0">A</tspan></text></g><g id="_Group_26" data-name="&lt;Group&gt;"><text class="cls-40" transform="translate(728.63 103.82)"><tspan class="cls-41">P</tspan><tspan x="20.42" y="0">AR</tspan><tspan class="cls-39" x="68.4" y="0">A</tspan><tspan x="91.17" y="0" xml:space="preserve"> SER</tspan></text></g><g id="_Group_27" data-name="&lt;Group&gt;"><text class="cls-40" transform="translate(527.16 260.1)">EN <tspan class="cls-42" x="56.35" y="0">L</tspan><tspan class="cls-43" x="76.94" y="0">O</tspan><tspan x="104.08" y="0">S</tspan><tspan class="cls-9"><tspan class="cls-44" x="0" y="41.39">P</tspan><tspan class="cls-45" x="22.27" y="41.39">R</tspan><tspan class="cls-46" x="46.09" y="41.39">Ó</tspan><tspan class="cls-44" x="72.3" y="41.39">XIM</tspan><tspan class="cls-47" x="137.65" y="41.39">O</tspan><tspan class="cls-48" x="164.79" y="41.39">S EVEN</tspan><tspan class="cls-49" x="288.57" y="41.39">T</tspan><tspan class="cls-47" x="310.49" y="41.39">O</tspan><tspan class="cls-44" x="337.63" y="41.39">S</tspan><tspan class="cls-50" x="359.69" y="41.39" xml:space="preserve"> DE  </tspan></tspan></text></g></g><text class="cls-51" transform="translate(589.35 105.88)">Click</text></g><g id="logo_anuncio" data-name="logo anuncio"><path id="_Path_29" data-name="&lt;Path&gt;" class="cls-52" d="M1272.77,174.24H1200a96.57,96.57,0,0,1-17.75-6.2c-2.72-1.31-6.33-1.56-8-4.57-1.21-.8-2.39-.55-3.57-.45-1.53.34-3.38.91-2.87,2.41.7,2,3.55,2.17,5.15,3.24-3.57,0-7.29.4-11.19-.53-1.75-.37-3.56-.46-5.22-1.38a38.44,38.44,0,0,0-3.65-1.36c-6.91-1.78-13.75-4-20.58-6.15-8-2.49-15.81-5.21-24-6.82-7.64-1.5-14.19-1.08-19.56,2.84a4,4,0,0,0-.68.59,17,17,0,0,1-5.54,4,6.74,6.74,0,0,0-.7.44c-.9.59-1.65,1.33-2.57,1.88a29.26,29.26,0,0,1-11.38,3.44c-.29-.11-.58-.22-.87-.31a20.19,20.19,0,0,1-2.93-1,7.67,7.67,0,0,0-.83-.35,18.14,18.14,0,0,1-2.57-.88c-.28-.13-.57-.26-.86-.37-.93-.33-1.83-.75-2.75-1.12a15,15,0,0,0-2.58-.68c-3.12-.38-6.09-2-9.23-2.25-4.12-.62-8.24-1.52-12.36-2.13-1.5-.22-3.21-.37-3.66,1.05s1.37,1.89,2.39,2.74a3.09,3.09,0,0,0-2.51,2,1.74,1.74,0,0,1-2.33,1c-3.41-1-5.05,1.12-7.37,2-1.16.46-.67,1.13.21,1.83.56.45,1.87.34,1.66,1.36s-1.26.79-2.16.78c-3.83-.05-4.58.65-3.2,3.88a9.76,9.76,0,0,1,.25,6.87c-.58,1.77,2,5.31-2.41,5.46-.65,0-.21,1.21.16,1.88,1.22,2.21.06,2.23-2,1.87a6.41,6.41,0,0,1-3.44-1.51,16.67,16.67,0,0,0-3.43-1.71,59.21,59.21,0,0,0-8.87-1.68,5.33,5.33,0,0,0-1,.06c-2.43.61-4.2,2.3-7,2.34-1.09.34-2,.89-3.17,1.16a2.82,2.82,0,0,0-1.73,1.07,9.09,9.09,0,0,1-3.89,3c-5.24,2.29-9.36,5.48-11.69,10.23-.19.19-.39.38-.56.59-.69.8-1.83,1.21-2.56,1.91-4.39,4.17-6.84,5.18-3.91,11.2a5.23,5.23,0,0,0,.55.78c2.6,2.58,6,4,9.3,5.47,2.25,1,2.45,1.69.62,2.73s-4.13,1.36-6.25,1.95a5.2,5.2,0,0,0-.8.38,14.09,14.09,0,0,1-2.53,1.09c-4.8,1.16-6.26,4.29-6.25,8.52,0,7,3.42,13,9.82,18.21,2.85,2.58,6.75,4.64,6.5,8.72,0,.76,1.06,1.6,1.8,2.31,1.31,1.26,2.66,2.49,4,3.73a3,3,0,0,0,1.6,1.12c2.43.43,3.83,2.09,5.31,3.65a16.47,16.47,0,0,0,8.86,6.8,46.31,46.31,0,0,0,5.67,1.89c2.54.51,1.17,1.13.55,1.78a6.66,6.66,0,0,0-.58.53c-1.18,1.32-2.13,2.83-4,3.53a2.86,2.86,0,0,0-.91.77,8.82,8.82,0,0,0-1.24,2,24.9,24.9,0,0,1-7.17,5.79c-5.71,3-5.49,8.66.09,13.56a31.54,31.54,0,0,0,2.89,2.48,9.88,9.88,0,0,0,.84.53c.91.55,1.92.93,2.8,1.52l.67.54a12.7,12.7,0,0,1,1.57,2,4.81,4.81,0,0,0,.63.63,18.59,18.59,0,0,0,4.25,2.94c.29.16.58.3.88.43,2.94,1.74,5.69.81,8.51.86a5.73,5.73,0,0,0,.91-.14c.29-.07.58-.13.87-.22a7.72,7.72,0,0,1,2.69.07c1.5.19,2.95.32,3.64,2,.59,1.47.62,2.47-1.25,2.76-.53.08-1,.9-.69,1.06,2,1.15.37,1.89.27,2.79-.08.63,1.29.89.68,1.78-2.06,3-1.12,5,3.11,7a12.83,12.83,0,0,1,3.59,2.19c1.48,1.47,3,1.48,4.75,1.31.8-.08,1.47-.76,2.46-.13.08.5-.28.72-.56,1a7.61,7.61,0,0,1-2,1.24,6.8,6.8,0,0,0-1.18.7c-4.28,3.68-3.66,8.67,1.56,12.87,6.31,5.08,15.56-22.72,23.14-21.18.37,0,24.37,47.65,8.59,12.28,4.69.41.06-.26,4.74,0,.35,0,5.68,0,6,0,1.43-.19-2.08-.05-.63,0a9.23,9.23,0,0,0,1,0,36.51,36.51,0,0,1,4.35,0,8.06,8.06,0,0,0,1,0,35.32,35.32,0,0,1,4.68,0,7.11,7.11,0,0,0,1.08,0,86.23,86.23,0,0,1,11.86,0h.47c1.58-.43,3.41.74,4.94,0h0a39.36,39.36,0,0,1,4,0c3.89-.08,7.74-.53,11.64,0a74.06,74.06,0,0,0,21.49,0c3.27-.52,6.82.62,10,0h-.05c3.66-.09,7.49.55,11.07,0h0c3.2,0,6.55,1.66,9.12,0h0c1.67-.63,4,1.73,4.94,0h0c1.45-.45,2.89.6,4.25,0h0c2-.39,3.63,1.31,4.88,0,2.56-4.66,5.76,5.24,7.14,0,.11-.24.21.26.28,0,2.45-3.39,3.76-1.16,8.39,0,4.09,1,8.24-2,12.3-.65a3.15,3.15,0,0,0,1.68.05c.64-.14,1.35-.31,1.35-1s-.7-1.07-1.32-1.41a9.54,9.54,0,0,0-4.38-.92,8.42,8.42,0,0,1-6.08-2.28c3.62-.66,7.45,1.73,10.76.54a2.78,2.78,0,0,0-1.78-1.34h-.2c-1.08-.32-1.08,0-1-.2h.3c.3.08.61.13.93.21a39.51,39.51,0,0,0,6.07-.21h2.41a14.24,14.24,0,0,1,2.36.31,1.2,1.2,0,0,0,1.24-.31h52.43Z"/><g id="_Group_28" data-name="&lt;Group&gt;"><path id="_Path_30" data-name="&lt;Path&gt;" class="cls-19" d="M1064.79,195a5.39,5.39,0,0,0,1.36.93c4.41,1.31,5.6,3.32,5.74,8.18.16,5.46-.22,10.91,0,16.38.62,12.8.21,25.61-.36,38.41a36,36,0,0,1-1.56,8.6c-1,3.36-3,4.65-6.45,4.84-3.15.18-6.2-.48-9.29-.78-3.83-.36-5.61-3.18-5.74-7.21a94.29,94.29,0,0,0-1.33-10.37c-.81-5.67-.55-11.4-.58-17.07,0-7.84-1.12-15.67-.45-23.52.37-4.31.58-8.64,1.12-12.93.28-2.25,1.11-4.44,3.84-5,1.86-.6,3.85.24,5.7-.5H1058a5.81,5.81,0,0,0,4,0Z"/><path id="_Path_31" data-name="&lt;Path&gt;" class="cls-20" d="M1163.3,287.64c.1,5.75-.77,9.92-1.31,14.12-.41,3.19-2.56,5.4-5.09,7.19a3.49,3.49,0,0,1-2.68.76c-5.29-1.11-10.27,1-15.41,1.35-5.9.45-11.74,1.28-17.77.8-3.35-.27-7.11-.4-10.58.68a2.35,2.35,0,0,1-.85,0c-11.63-.85-23.23,1.42-34.87.28-6.89-.67-13.89-.5-20.68-1.62-5.46-.9-7.06-2.2-7.42-8.09-.31-5.13-.11-10.26-.37-15.4-.15-3.09.53-7.31,2.55-9.15,2.55-2.32,5.56-4.77,10.37-4.34a109.34,109.34,0,0,0,22.09.13,20.28,20.28,0,0,1,4.15.06c8.44.76,16.79-1,25.23-.58,12.09.66,24.21.78,36.3,1.43a33.4,33.4,0,0,1,10.69,2.59C1162,279.67,1163.3,282.47,1163.3,287.64Z"/><path id="_Path_32" data-name="&lt;Path&gt;" class="cls-21" d="M1182.6,213.74a79.87,79.87,0,0,1,.21-11.87c.51-4.28,1.63-5.25,5.8-4.89a35.87,35.87,0,0,0,7.45-.27c4.86-.61,9.63.2,14.35,1a5.3,5.3,0,0,1,4.27,5.09,78.22,78.22,0,0,1-.57,19.47c-.28,1.66-1.32,2.3-3.1,3.15-5.71,2.72-11.79,1.54-17.59,2.67-3,.59-5.95-.77-8.85-1.5-1.54-.39-1.86-2.12-1.92-3.52C1182.51,220,1182.6,216.85,1182.6,213.74Z"/><path id="_Path_33" data-name="&lt;Path&gt;" class="cls-22" d="M1155.22,237c0-.47-.06-.94,0-1.42.1-4.85,1.55-5.88,6.35-4.67a2.17,2.17,0,0,1,1.83,2.16c.2,2.63.39,5.26.59,7.89.66,8.57.86,17.16.81,25.75,0,1.8-.33,3.3-2.62,3.65-3.72.57-6,0-7-2.13-1.24-2.69-1.42-5.77-3.37-9,0,3.08,0,5.4,0,7.72,0,1.85-.65,2.89-2.64,2.74-.56,0-1.13,0-1.7-.07-5.11-.3-4.84-.35-5-5.46-.38-10.1-.37-20.19-.34-30.28,0-2.14.69-2.71,2.5-2.67s3.59.22,5.38.17c1.23,0,1.62.72,2,1.59a39.7,39.7,0,0,1,2.58,6.88C1156.08,239.12,1155.3,238,1155.22,237Z"/><path id="_Path_34" data-name="&lt;Path&gt;" class="cls-23" d="M1092.3,216.17c-3,4.37-3.46,4.5-8,2.43-.66,2.18-.49,4.45-.68,6.67-.24,2.79-1.12,3.28-4.78,3.24-2.31,0-2.8-1.18-2.82-3.23-.09-8.94-.29-17.88-.45-26.82a2.13,2.13,0,0,1,.31-1.62c1.73-1.92,8.34-.64,9.3,1.81.88,2.25,1.71,4.52,2.77,7.37,1.32-2.88,2.48-5.2,3.47-7.6,1.35-3.26,4-1.63,6.13-1.62,1.91,0,2,1.59,2,3.32q0,12.6.36,25.2c.07,2.26-.29,3.68-2.88,3.74-3.48.09-4.74-.78-4.79-3.65S1092.3,219.46,1092.3,216.17Z"/><path id="_Path_35" data-name="&lt;Path&gt;" class="cls-22" d="M1104.42,241.61c-3.15,0-5.51,0-7.87,0-2.79,0-4.34-1.65-4.25-4.44.14-4.72.16-5,5-4.57,4.61.38,9.22-.5,13.82.39,1.85.36,2.28,1.25,2.67,3,1.21,5.34-2.42,9-4.3,13.23s-4.31,7.93-6.64,12.12c2.85.71,5.55.2,8.21.28,2,.06,3.64.53,3.58,2.93-.06,2.09.34,4.61-2.92,4.78-6.2.33-12.39.89-18.6.67-1.57-.05-2-1.18-2.21-2.73-.48-3.92,2-6.58,3.76-9.53C1097.7,252.43,1100.06,246.75,1104.42,241.61Z"/><path id="_Path_36" data-name="&lt;Path&gt;" class="cls-23" d="M1101.68,209c0-3,0-6.06,0-9.08,0-1.09-.55-2.71,1.57-2.55,1.9.14,4.35-1.34,5.36,1.56a13.61,13.61,0,0,1,.44,3.64c.34,5.94-.47,11.92.51,17.85.15.94,0,2.13,1.22,2.24s1.54-1.06,1.85-2.08a17.23,17.23,0,0,0,.52-6.46c-.39-4.82.64-9.63.09-14.45-.15-1.34.59-2.06,1.93-2.33,4.66-.94,6,.17,5.82,5-.19,5.57-.46,11.15-.62,16.72a16.77,16.77,0,0,1-2.3,7.8c-1.32,2.34-4.74,3.09-9,2.12-4.05-.91-6-3.72-6.77-7.51C1101.41,217.32,1101.86,213.13,1101.68,209Z"/><path id="_Path_37" data-name="&lt;Path&gt;" class="cls-22" d="M1077.15,250.33a78.87,78.87,0,0,1,.12-15.58c.29-3.5.59-3.82,4.69-3.87,3.74,0,5.46,1,5.38,3.79-.26,10.18.52,20.38-.4,30.55-.42,4.64-2.51,5.93-6.91,4.4a2.89,2.89,0,0,1-2.22-2.63A159.22,159.22,0,0,1,1077.15,250.33Z"/><path id="_Path_38" data-name="&lt;Path&gt;" class="cls-23" d="M1165.4,210.18c0-3.68.09-7.36,0-11-.06-1.74.69-2.43,2.24-2.51,1-.05,2.08.13,3.11,0,2.47-.21,3.14,1.21,3.1,3.29-.13,5.84-.13,11.7-.51,17.52-.17,2.53.62,3.24,3,3.44,4.15.36,4.74,1.32,4.51,5.47-.09,1.59-.77,2.23-2.25,2.21a83.71,83.71,0,0,1-10.47-.52c-1.65-.23-2.13-1.09-2.3-2.63A145.82,145.82,0,0,1,1165.4,210.18Z"/><g id="_Group_29" data-name="&lt;Group&gt;"><path id="_Compound_Path_14" data-name="&lt;Compound Path&gt;" class="cls-22" d="M1214.62,238.91c-1.49-4.41-4-7.51-8.82-8.61-5.15-1.17-10.71.79-13,5.52-3.33,6.88-3.29,14.24-2,21.61a17.38,17.38,0,0,0,5.47,10.6c3.9,3.45,11.62,3.43,14.66-.28a20.55,20.55,0,0,0,4.53-8.72c.16-.76,0-1.76,1.05-2.13V245C1215,243.21,1215.3,240.91,1214.62,238.91Zm-9.76,19.28c-.85,1.46-1.74,1.79-2.58,0a16.84,16.84,0,0,1-.19-14.75c.72-1.6,2.31-1.49,3.37.24,1.18,1.93,1.22,4.12,1.23,6.3A16.46,16.46,0,0,1,1204.86,258.19Z"/></g><g id="_Group_30" data-name="&lt;Group&gt;"><path id="_Compound_Path_15" data-name="&lt;Compound Path&gt;" class="cls-24" d="M1191,307.7c-.31-.88-.88-1.67-1.27-2.53-1.5-3.27-4.25-6.46-.56-10a2.91,2.91,0,0,0,.52-1.6,33,33,0,0,0-.14-10.18c-1.05-6.09-4-8.79-10.26-9.41a57.59,57.59,0,0,0-9,0c-1.77.1-2.69,1.06-2.66,3.18.14,8.12.06,16.25.06,24.37h.76c-.13,2.17-.35,4.34-.37,6.51s1.08,3.74,3.22,4,4.12-.59,4.53-3.19c.22-1.4.23-2.84.56-4.21.22-.9-.18-2.37,1.28-2.53s1.32,1.37,1.67,2.22c.71,1.75,1.22,3.57,1.86,5.35.33.9.73,1.72,2,1.69,1.8,0,3.6.17,5.39.08C1190.72,311.31,1191.71,309.76,1191,307.7Zm-11.61-16c-.44.76-1.13,1.48-2,1.26s-.43-1.27-.52-1.94c-.13-1-.12-2.07-.2-3.62a8.38,8.38,0,0,1,0-1.76c.15-.86-.73-2.34,1-2.41,1.39-.06,2.91.67,2.89,2.15C1180.46,287.5,1180.51,289.75,1179.38,291.71Z"/></g><g id="_Group_31" data-name="&lt;Group&gt;"><path id="_Compound_Path_16" data-name="&lt;Compound Path&gt;" class="cls-22" d="M1188,243.73c-1.37-6.43-5-10.66-11.42-12.24a39.11,39.11,0,0,0-7.87-.88c-1.71-.06-2.31.51-2.22,2.26.61,11.29,1.17,22.59,1.16,33.91a2.24,2.24,0,0,0,1.82,2.51c8.44,1.36,17.59-2.45,18.76-11.82a52.24,52.24,0,0,0,.46-6.48A25.81,25.81,0,0,0,1188,243.73Zm-10,14a3.08,3.08,0,0,1-1.37,1.74c-1.06.67-1.68.67-1.67-.89,0-5.46,0-10.92,0-16.78,3.36,1.11,4.22,3.61,4.54,6.23C1180,251.32,1179,254.53,1178,257.69Z"/></g><g id="_Group_32" data-name="&lt;Group&gt;"><path id="_Compound_Path_17" data-name="&lt;Compound Path&gt;" class="cls-25" d="M1214.44,287.58c-.9-5.93-3.71-10.42-9.71-12.38a27.74,27.74,0,0,0-7.25-1.24c-4.11-.21-4-.17-3.86,3.86.37,8.1.66,16.2,1,25.09,0,1.48,0,3.75,0,6a2.28,2.28,0,0,0,1.54,2.43c4.61,1.72,13.06-1,15.87-5.23C1215.87,300.37,1215.41,294,1214.44,287.58Zm-9.89,12.82a2.21,2.21,0,0,1-2.29,1.74c-1-.2-.46-1.42-.47-2.17,0-5,0-10,0-15.29,3.2,1.13,4.11,3.55,4.41,6.05C1206.57,294.06,1205.58,297.27,1204.55,300.41Z"/></g><g id="_Group_33" data-name="&lt;Group&gt;"><path id="_Compound_Path_18" data-name="&lt;Compound Path&gt;" class="cls-22" d="M1139.26,264.26c-.27-1.1-.49-2.21-.67-3.33a243,243,0,0,0-6.17-26.43c-.91-3.27-3.33-3.26-5.78-3.13s-4.43.63-5.15,3.65c-2.29,9.64-4.08,19.37-5.92,29.09-.45,2.38.06,4.17,2.56,4.89s4.48.1,5.67-2.3a12.41,12.41,0,0,0,1.28-4.9c.05-1,.43-1.68,1.54-1.51s2.4-.54,2.74,1.19c.22,1.11.44,2.23.76,3.31,1.26,4.21,2,4.77,5.54,4.52C1139.91,269,1140.29,268.46,1139.26,264.26Zm-10.94-10.87a2.68,2.68,0,0,1-1.63-.06c-.65-.26-.44-.9-.31-1.46.37-1.61.71-3.23,1.19-5.4.44,2.23.77,3.87,1.09,5.51C1128.77,252.5,1129.09,253.17,1128.33,253.39Z"/></g><g id="_Group_34" data-name="&lt;Group&gt;"><path id="_Compound_Path_19" data-name="&lt;Compound Path&gt;" class="cls-23" d="M1141.71,224.5c-.89-2-1.78-4-2.74-5.9-.38-.76-.53-1.39.12-2,2.27-2.26,2-5.16,2.06-7.48-.09-1.44-.18-2.39-.21-3.33-.3-7.34-5.63-9.68-11.21-9.56-1.41,0-2.82.23-4.22.17-2.29-.1-3.35.56-3.39,3.18-.13,8.59,1.15,17.16.29,25.76a3.18,3.18,0,0,0,2.89,3.62c1.9.22,3.53-.6,3.79-2.89.17-1.5.39-3,.58-4.5a1,1,0,0,1,1.09-1,1,1,0,0,1,1,.83c.21.72.46,1.44.68,2.16,1.53,5,1.67,5.15,6.82,5C1141.9,228.32,1142.79,226.91,1141.71,224.5Zm-8.67-17c-.2,1.57-.11,3.19-1.25,4.48a1.3,1.3,0,0,1-1.19.59c-.66-.1-.51-.66-.55-1.09-.13-1.39-.25-2.79-.39-4.3.49-.82-1-2.67,1.11-2.74C1132.6,204.34,1133.28,205.6,1133,207.46Z"/></g><g id="_Group_35" data-name="&lt;Group&gt;"><path id="_Compound_Path_20" data-name="&lt;Compound Path&gt;" class="cls-23" d="M1163.39,224.64c-.25-1.49-.62-2.95-.89-4.43a208,208,0,0,0-4.92-20.62c-.76-2.68-2.75-2.57-4.69-2.5s-3.64.37-4.3,2.78c-.78,2.83-1.26,5.7-1.82,8.57-1,5.27-2.14,10.52-3.21,15.77-.17,2,.37,3.45,2.46,3.91s3.76-.1,4.58-2.23a19.67,19.67,0,0,0,.94-3.26c.19-1,.27-1.82,1.65-1.74,1.21.07,1.82.4,2.07,1.72a18,18,0,0,0,1.46,4.26c1.25,2.68,3.68,1.49,5.53,1.24S1163.62,226,1163.39,224.64Zm-9.8-9.31c-.82-.05-1.18-.48-1-1.32.32-1.24.23-2.61,1.13-3.94.32,1.57.59,2.75.79,4C1154.67,214.73,1154.56,215.39,1153.59,215.33Z"/></g></g></g></g></g></g></g></g></g></svg>