<svg xmlns="http://www.w3.org/2000/svg" viewBox="0 0 113.11 78.41"><defs><style>.cls-1{fill:#f19220;}.cls-2{fill:#93c13e;}.cls-3{fill:#f6e813;}.cls-4{fill:#e4097d;}.cls-5{fill:#fff;}.cls-6{fill:#6a4596;}.cls-7{fill:#6b4595;}</style></defs><title>logo</title><g id="Layer_2" data-name="Layer 2"><g id="PAGINA_1_-_NUEVA_INICIO" data-name="PAGINA 1 -  NUEVA INICIO"><g id="_1._MENUus_VARIOS" data-name="1. MENUus VARIOS"><g id="_Group_" data-name="&lt;Group&gt;"><path id="_Path_" data-name="&lt;Path&gt;" class="cls-1" d="M12.49,0a3.57,3.57,0,0,0,.9.62c2.93.87,3.72,2.2,3.81,5.42.11,3.62-.15,7.23,0,10.87.41,8.49.14,17-.24,25.48a23.87,23.87,0,0,1-1,5.7c-.65,2.23-2,3.08-4.28,3.21a40.73,40.73,0,0,1-6.16-.51C3,50.54,1.79,48.67,1.71,46a62.54,62.54,0,0,0-.88-6.88A82,82,0,0,1,.44,27.8c0-5.2-.74-10.39-.3-15.6C.39,9.34.53,6.47.89,3.62,1.07,2.13,1.62.68,3.43.33,4.67-.07,6,.49,7.21,0H8a3.86,3.86,0,0,0,2.64,0Z"/><path id="_Path_2" data-name="&lt;Path&gt;" class="cls-2" d="M77.83,61.47A57.45,57.45,0,0,1,77,70.83c-.27,2.12-1.7,3.58-3.38,4.77a2.32,2.32,0,0,1-1.78.5c-3.51-.74-6.81.64-10.22.89-3.91.3-7.79.85-11.79.53a18.75,18.75,0,0,0-7,.45,1.56,1.56,0,0,1-.56,0c-7.71-.56-15.41.94-23.13.18-4.57-.45-9.21-.33-13.72-1.07C1.75,76.52.69,75.66.46,71.75c-.2-3.4-.07-6.81-.24-10.21-.1-2.05.35-4.85,1.69-6.07,1.69-1.54,3.69-3.16,6.88-2.88a72.52,72.52,0,0,0,14.65.08,13.45,13.45,0,0,1,2.75,0c5.6.5,11.14-.69,16.73-.38,8,.44,16.06.52,24.07.95A22.15,22.15,0,0,1,74.08,55C77,56.18,77.83,58,77.83,61.47Z"/><path id="_Path_3" data-name="&lt;Path&gt;" class="cls-3" d="M90.63,12.45a53,53,0,0,1,.14-7.87c.34-2.84,1.08-3.48,3.85-3.24a23.79,23.79,0,0,0,4.94-.18,32.73,32.73,0,0,1,9.52.66,3.51,3.51,0,0,1,2.83,3.38,51.88,51.88,0,0,1-.38,12.92c-.19,1.1-.87,1.53-2.06,2.09-3.79,1.8-7.82,1-11.67,1.77-2,.39-3.94-.51-5.87-1-1-.26-1.24-1.41-1.27-2.33C90.57,16.58,90.63,14.51,90.63,12.45Z"/><path id="_Path_4" data-name="&lt;Path&gt;" class="cls-4" d="M72.47,27.86c0-.31,0-.63,0-.94.07-3.21,1-3.9,4.21-3.1a1.44,1.44,0,0,1,1.22,1.44c.13,1.74.26,3.49.39,5.23.44,5.69.57,11.38.54,17.08,0,1.19-.22,2.19-1.73,2.42-2.47.38-4,0-4.62-1.42-.82-1.78-.94-3.83-2.24-6,0,2,0,3.58,0,5.12,0,1.23-.43,1.92-1.75,1.82-.37,0-.75,0-1.13,0-3.39-.2-3.21-.23-3.34-3.62-.25-6.7-.24-13.39-.23-20.09,0-1.42.46-1.8,1.66-1.77s2.38.14,3.57.11c.82,0,1.08.48,1.35,1.06a26.33,26.33,0,0,1,1.71,4.56C73,29.28,72.52,28.52,72.47,27.86Z"/><path id="_Path_5" data-name="&lt;Path&gt;" class="cls-5" d="M30.74,14.06c-2,2.9-2.3,3-5.27,1.61A21,21,0,0,0,25,20.1c-.16,1.85-.74,2.17-3.17,2.15-1.53,0-1.86-.78-1.87-2.14-.06-5.93-.19-11.86-.3-17.79a1.42,1.42,0,0,1,.21-1.07C21,0,25.41.82,26,2.45s1.13,3,1.84,4.89c.88-1.91,1.64-3.45,2.3-5,.89-2.17,2.68-1.08,4.06-1.07s1.36,1.06,1.36,2.2q0,8.36.24,16.71c0,1.5-.19,2.44-1.91,2.48-2.31.06-3.14-.52-3.18-2.42S30.74,16.24,30.74,14.06Z"/><path id="_Path_6" data-name="&lt;Path&gt;" class="cls-4" d="M38.78,30.94c-2.09,0-3.65,0-5.22,0A2.59,2.59,0,0,1,30.74,28c.1-3.13.11-3.29,3.29-3s6.12-.33,9.17.26c1.22.24,1.51.83,1.77,2,.8,3.54-1.6,6-2.85,8.78s-2.86,5.26-4.4,8c1.89.47,3.68.14,5.44.18,1.35,0,2.42.35,2.37,1.94,0,1.39.22,3.06-1.94,3.17-4.11.22-8.22.59-12.34.45-1,0-1.34-.78-1.47-1.81-.32-2.6,1.35-4.37,2.49-6.32C34.32,38.11,35.89,34.35,38.78,30.94Z"/><path id="_Path_7" data-name="&lt;Path&gt;" class="cls-5" d="M37,9.29c0-2,0-4,0-6,0-.73-.37-1.8,1-1.69s2.89-.89,3.55,1A9,9,0,0,1,41.86,5c.23,3.94-.31,7.91.34,11.84.1.62,0,1.41.81,1.49s1-.7,1.23-1.38a11.43,11.43,0,0,0,.35-4.29c-.26-3.2.42-6.39.06-9.58-.1-.89.39-1.37,1.28-1.55,3.09-.62,4,.11,3.86,3.31-.13,3.7-.3,7.39-.41,11.09a11.12,11.12,0,0,1-1.53,5.17c-.87,1.56-3.14,2-6,1.41-2.69-.6-3.95-2.47-4.49-5C36.78,14.82,37.08,12,37,9.29Z"/><path id="_Path_8" data-name="&lt;Path&gt;" class="cls-4" d="M20.69,36.72a52.31,52.31,0,0,1,.08-10.33c.19-2.32.39-2.53,3.11-2.57,2.48,0,3.62.65,3.57,2.51-.17,6.75.34,13.52-.27,20.26-.28,3.08-1.67,3.93-4.58,2.92a1.91,1.91,0,0,1-1.47-1.74A105.61,105.61,0,0,1,20.69,36.72Z"/><path id="_Path_9" data-name="&lt;Path&gt;" class="cls-5" d="M79.22,10.09c0-2.44.06-4.88,0-7.32,0-1.16.46-1.61,1.49-1.67.69,0,1.38.09,2.06,0,1.64-.14,2.09.81,2.06,2.18-.08,3.88-.08,7.76-.34,11.62-.11,1.68.41,2.15,2,2.28,2.75.24,3.14.88,3,3.63-.06,1.06-.51,1.48-1.49,1.47A55.52,55.52,0,0,1,81,22c-1.1-.15-1.42-.72-1.52-1.75A96.72,96.72,0,0,1,79.22,10.09Z"/><g id="_Group_2" data-name="&lt;Group&gt;"><path id="_Compound_Path_" data-name="&lt;Compound Path&gt;" class="cls-4" d="M111.87,29.14c-1-2.93-2.66-5-5.85-5.71-3.42-.78-7.1.52-8.62,3.66-2.21,4.56-2.18,9.44-1.34,14.34a11.53,11.53,0,0,0,3.63,7c2.59,2.29,7.71,2.28,9.72-.18a13.63,13.63,0,0,0,3-5.78c.11-.5,0-1.17.7-1.42V33.16C112.15,32,112.32,30.47,111.87,29.14ZM105.4,41.93c-.56,1-1.15,1.19-1.71,0a11.17,11.17,0,0,1-.13-9.78c.48-1.06,1.53-1,2.24.16a7.76,7.76,0,0,1,.82,4.18A10.92,10.92,0,0,1,105.4,41.93Z"/></g><g id="_Group_3" data-name="&lt;Group&gt;"><path id="_Compound_Path_2" data-name="&lt;Compound Path&gt;" class="cls-6" d="M96.19,74.77c-.21-.59-.58-1.11-.84-1.68-1-2.17-2.82-4.28-.37-6.66a1.93,1.93,0,0,0,.34-1.06,21.91,21.91,0,0,0-.09-6.75c-.7-4-2.62-5.83-6.81-6.24a38.2,38.2,0,0,0-6,0c-1.18.07-1.79.71-1.76,2.11.1,5.39,0,10.78,0,16.17h.5C81.14,72.1,81,73.54,81,75a2.59,2.59,0,0,0,5.14.54c.14-.93.15-1.89.37-2.79.15-.6-.12-1.57.85-1.68s.88.91,1.11,1.47c.47,1.16.81,2.37,1.24,3.55.22.59.48,1.14,1.3,1.12,1.19,0,2.39.11,3.58.05A1.69,1.69,0,0,0,96.19,74.77Zm-7.7-10.61c-.29.51-.75,1-1.35.84s-.29-.84-.34-1.29c-.09-.68-.08-1.38-.13-2.4a5.56,5.56,0,0,1,0-1.17c.1-.57-.48-1.55.64-1.6.92,0,1.93.44,1.91,1.42A8.4,8.4,0,0,1,88.49,64.16Z"/></g><g id="_Group_4" data-name="&lt;Group&gt;"><path id="_Compound_Path_3" data-name="&lt;Compound Path&gt;" class="cls-4" d="M94.21,32.34c-.91-4.26-3.3-7.07-7.58-8.12a25.94,25.94,0,0,0-5.22-.58c-1.14,0-1.54.34-1.47,1.5.4,7.49.78,15,.77,22.49a1.48,1.48,0,0,0,1.2,1.67c5.6.9,11.67-1.62,12.44-7.84a34.65,34.65,0,0,0,.31-4.3A17.12,17.12,0,0,0,94.21,32.34ZM87.6,41.6a2,2,0,0,1-.91,1.15c-.71.45-1.12.44-1.11-.59,0-3.62,0-7.25,0-11.13,2.23.74,2.8,2.39,3,4.13A15.7,15.7,0,0,1,87.6,41.6Z"/></g><g id="_Group_5" data-name="&lt;Group&gt;"><path id="_Compound_Path_4" data-name="&lt;Compound Path&gt;" class="cls-7" d="M111.75,61.43c-.6-3.94-2.46-6.91-6.44-8.21a18.4,18.4,0,0,0-4.81-.82c-2.73-.14-2.68-.11-2.56,2.56.25,5.37.44,10.75.67,16.64,0,1,0,2.49,0,4a1.51,1.51,0,0,0,1,1.61c3.06,1.14,8.66-.67,10.53-3.47C112.7,69.91,112.4,65.68,111.75,61.43Zm-6.56,8.51a1.47,1.47,0,0,1-1.52,1.16c-.69-.13-.31-.94-.31-1.44,0-3.3,0-6.61,0-10.14a4.31,4.31,0,0,1,2.92,4A15,15,0,0,1,105.19,69.93Z"/></g><g id="_Group_6" data-name="&lt;Group&gt;"><path id="_Compound_Path_5" data-name="&lt;Compound Path&gt;" class="cls-4" d="M61.89,46c-.18-.73-.32-1.47-.44-2.21a161.16,161.16,0,0,0-4.09-17.53c-.6-2.17-2.21-2.16-3.84-2.08s-2.94.42-3.41,2.42C48.59,33,47.4,39.41,46.17,45.86c-.3,1.58,0,2.77,1.7,3.24a2.89,2.89,0,0,0,3.76-1.53,8.23,8.23,0,0,0,.85-3.25c0-.67.28-1.11,1-1s1.59-.36,1.82.79c.15.74.29,1.48.5,2.2.84,2.79,1.31,3.16,3.68,3C62.31,49.11,62.57,48.74,61.89,46Zm-7.25-7.21a1.78,1.78,0,0,1-1.08,0c-.43-.17-.29-.6-.21-1,.25-1.07.47-2.14.79-3.58.29,1.48.51,2.57.72,3.66C54.92,38.16,55.14,38.6,54.64,38.75Z"/></g><g id="_Group_7" data-name="&lt;Group&gt;"><path id="_Compound_Path_6" data-name="&lt;Compound Path&gt;" class="cls-5" d="M63.51,19.58c-.59-1.31-1.18-2.62-1.82-3.91-.25-.5-.35-.92.08-1.35,1.51-1.5,1.32-3.42,1.37-5-.06-1-.12-1.58-.14-2.21C62.8,2.28,59.26.73,55.56.8c-.93,0-1.87.15-2.8.11C51.24.85,50.54,1.29,50.52,3c-.09,5.7.77,11.38.19,17.08a2.11,2.11,0,0,0,1.91,2.4,2.05,2.05,0,0,0,2.52-1.92c.11-1,.26-2,.38-3a.68.68,0,0,1,.72-.69.66.66,0,0,1,.66.55c.14.48.3,1,.45,1.43,1,3.35,1.11,3.41,4.53,3.29C63.64,22.12,64.23,21.19,63.51,19.58ZM57.76,8.28c-.13,1-.07,2.11-.83,3a.86.86,0,0,1-.79.39c-.44-.07-.34-.44-.37-.72-.09-.92-.17-1.85-.26-2.86.32-.55-.64-1.77.73-1.81C57.47,6.22,57.92,7.05,57.76,8.28Z"/></g><g id="_Group_8" data-name="&lt;Group&gt;"><path id="_Compound_Path_7" data-name="&lt;Compound Path&gt;" class="cls-5" d="M77.89,19.68c-.16-1-.41-2-.59-2.94A138,138,0,0,0,74,3.06c-.51-1.78-1.83-1.71-3.11-1.66s-2.41.24-2.85,1.84c-.52,1.88-.84,3.78-1.21,5.68-.68,3.49-1.42,7-2.13,10.46-.11,1.31.25,2.29,1.63,2.59a2.35,2.35,0,0,0,3-1.48A13,13,0,0,0,70,18.35c.13-.65.18-1.21,1.09-1.16s1.21.27,1.37,1.14a12,12,0,0,0,1,2.82c.83,1.78,2.44,1,3.67.83S78,20.58,77.89,19.68Zm-6.5-6.18c-.54,0-.78-.32-.64-.87A7.12,7.12,0,0,1,71.5,10c.21,1,.39,1.83.53,2.62C72.11,13.1,72,13.54,71.39,13.5Z"/></g></g></g></g></g></svg>