<svg xmlns="http://www.w3.org/2000/svg" viewBox="0 0 228.57 158.44"><defs><style>.cls-1{fill:#f19220;}.cls-2{fill:#93c13e;}.cls-3{fill:#f6e813;}.cls-4{fill:#e4097d;}.cls-5{fill:#209dd8;}.cls-6{fill:#fff;}</style></defs><title>muralizando-logo2</title><g id="Layer_2" data-name="Layer 2"><g id="PAGINA_1_-_NUEVA_INICIO" data-name="PAGINA 1 -  NUEVA INICIO"><g id="_7._CIERRE" data-name="7. CIERRE"><g id="logo_peq" data-name="logo peq"><g id="_Group_" data-name="&lt;Group&gt;"><g id="_Group_2" data-name="&lt;Group&gt;"><path id="_Path_" data-name="&lt;Path&gt;" class="cls-1" d="M25.24,0a7.22,7.22,0,0,0,1.82,1.25C33,3,34.57,5.7,34.76,12.21c.21,7.32-.3,14.62.06,22,.83,17.15.27,34.32-.49,51.48a48.22,48.22,0,0,1-2.09,11.52c-1.32,4.5-4,6.23-8.65,6.49-4.22.24-8.31-.65-12.45-1C6,102.13,3.62,98.35,3.45,93c-.14-4.65-1.11-9.27-1.78-13.9C.58,71.46.93,63.78.9,56.18c0-10.51-1.5-21-.6-31.52.49-5.78.78-11.58,1.5-17.33.38-3,1.48-6,5.14-6.66C9.43-.14,12.1,1,14.58,0H16.1a7.79,7.79,0,0,0,5.33,0Z"/><path id="_Path_2" data-name="&lt;Path&gt;" class="cls-2" d="M157.27,124.2c.13,7.7-1,13.3-1.75,18.93-.54,4.28-3.44,7.23-6.83,9.64a4.68,4.68,0,0,1-3.59,1c-7.09-1.49-13.77,1.28-20.65,1.81-7.9.6-15.74,1.72-23.82,1.07-4.48-.36-9.53-.54-14.18.9a3.15,3.15,0,0,1-1.13.05c-15.59-1.14-31.13,1.9-46.74.37-9.23-.9-18.61-.67-27.72-2.17C3.54,154.63,1.4,152.88.92,145c-.41-6.87-.15-13.76-.49-20.64-.21-4.14.71-9.8,3.41-12.26,3.41-3.11,7.45-6.39,13.89-5.81,9.75.87,19.75,1.29,29.6.17a27.19,27.19,0,0,1,5.56.08c11.31,1,22.5-1.39,33.81-.77,16.2.88,32.44,1,48.65,1.91a44.76,44.76,0,0,1,14.33,3.48C155.5,113.52,157.27,117.27,157.27,124.2Z"/><path id="_Path_3" data-name="&lt;Path&gt;" class="cls-3" d="M183.13,25.16a107.05,107.05,0,0,1,.28-15.91c.69-5.73,2.19-7,7.78-6.56a48.08,48.08,0,0,0,10-.36c6.52-.82,12.9.27,19.24,1.33,3.32.55,5.44,3.38,5.72,6.83a104.84,104.84,0,0,1-.76,26.1c-.38,2.23-1.76,3.08-4.16,4.22-7.66,3.64-15.8,2.07-23.58,3.58-4.07.79-8-1-11.86-2-2.06-.52-2.5-2.85-2.58-4.71C183,33.51,183.13,29.33,183.13,25.16Z"/><path id="_Path_4" data-name="&lt;Path&gt;" class="cls-4" d="M146.44,56.3c0-.63-.07-1.27-.06-1.9.14-6.49,2.08-7.89,8.52-6.26a2.91,2.91,0,0,1,2.46,2.9c.27,3.53.52,7.05.79,10.58.89,11.49,1.15,23,1.09,34.51,0,2.41-.44,4.42-3.51,4.89-5,.77-8,0-9.33-2.86-1.66-3.6-1.91-7.73-4.52-12.11,0,4.13-.05,7.24,0,10.34.06,2.49-.87,3.87-3.53,3.68-.76-.06-1.52,0-2.28-.09-6.85-.4-6.48-.46-6.74-7.32-.51-13.53-.49-27.05-.46-40.59,0-2.87.93-3.63,3.35-3.58s4.81.29,7.21.22c1.65,0,2.17,1,2.73,2.14a53.2,53.2,0,0,1,3.46,9.22C147.6,59.18,146.55,57.64,146.44,56.3Z"/><path id="_Path_5" data-name="&lt;Path&gt;" class="cls-5" d="M62.12,28.41c-4,5.85-4.64,6-10.66,3.25-.89,2.92-.66,6-.92,8.94C50.22,44.35,49,45,44.13,45c-3.1,0-3.76-1.58-3.78-4.33-.11-12-.39-24-.61-35.94a2.86,2.86,0,0,1,.42-2.17c2.32-2.57,11.18-.86,12.47,2.43,1.18,3,2.29,6.06,3.72,9.87C58.11,11,59.66,7.84,61,4.64,62.79.26,66.39,2.45,69.2,2.47c2.55,0,2.74,2.14,2.75,4.46q0,16.89.48,33.77c.09,3-.39,4.93-3.86,5-4.66.12-6.35-1-6.43-4.89C62.05,36.83,62.12,32.82,62.12,28.41Z"/><path id="_Path_6" data-name="&lt;Path&gt;" class="cls-4" d="M78.36,62.51c-4.22,0-7.38,0-10.54,0-3.74,0-5.81-2.21-5.7-6,.19-6.32.22-6.65,6.65-6.12,6.18.51,12.36-.67,18.53.52,2.47.48,3.06,1.68,3.58,4C92.49,62.1,87.64,67,85.11,72.68s-5.78,10.63-8.9,16.24c3.82,1,7.44.27,11,.37,2.73.07,4.88.71,4.8,3.93-.07,2.8.45,6.17-3.92,6.4-8.31.44-16.61,1.19-24.93.9-2.1-.07-2.7-1.58-3-3.66-.65-5.26,2.73-8.82,5-12.78C69.34,77,72.52,69.4,78.36,62.51Z"/><path id="_Path_7" data-name="&lt;Path&gt;" class="cls-5" d="M74.68,18.78c0-4.06-.05-8.12,0-12.18,0-1.47-.74-3.63,2.1-3.42,2.55.19,5.83-1.79,7.18,2.09a18.24,18.24,0,0,1,.59,4.87c.46,8-.63,16,.68,23.93.21,1.26,0,2.85,1.64,3s2.06-1.42,2.48-2.79a23.1,23.1,0,0,0,.7-8.66c-.52-6.47.86-12.9.13-19.37C90,4.46,91,3.49,92.79,3.13c6.24-1.25,8,.23,7.8,6.69-.26,7.47-.61,14.94-.83,22.41a22.47,22.47,0,0,1-3.09,10.45c-1.76,3.14-6.35,4.14-12.1,2.85-5.43-1.22-8-5-9.07-10.07C74.33,30,74.93,24.34,74.68,18.78Z"/><path id="_Path_8" data-name="&lt;Path&gt;" class="cls-4" d="M41.81,74.19c-.79-6.47-.43-13.67.15-20.88.38-4.69.79-5.12,6.29-5.19,5-.06,7.31,1.32,7.22,5.07-.35,13.65.69,27.31-.54,40.94-.56,6.21-3.37,7.95-9.26,5.9a3.87,3.87,0,0,1-3-3.52A213.4,213.4,0,0,1,41.81,74.19Z"/><path id="_Path_9" data-name="&lt;Path&gt;" class="cls-5" d="M160.09,20.39c0-4.93.12-9.87-.05-14.79-.08-2.34.93-3.26,3-3.37,1.38-.07,2.79.17,4.17.06,3.31-.28,4.21,1.63,4.15,4.4-.17,7.83-.17,15.67-.68,23.48-.22,3.39.83,4.34,4,4.62,5.57.48,6.35,1.77,6,7.33-.12,2.13-1,3-3,3a112.19,112.19,0,0,1-14-.69c-2.22-.31-2.86-1.46-3.08-3.53C159.89,34,160.08,27.22,160.09,20.39Z"/><g id="_Group_3" data-name="&lt;Group&gt;"><path id="_Compound_Path_" data-name="&lt;Compound Path&gt;" class="cls-4" d="M226.06,58.88c-2-5.91-5.38-10.07-11.82-11.54-6.91-1.57-14.35,1.06-17.42,7.4-4.47,9.22-4.4,19.08-2.71,29,.94,5.48,3,10.37,7.33,14.21,5.22,4.63,15.58,4.6,19.65-.37a27.54,27.54,0,0,0,6.07-11.68c.22-1,0-2.36,1.41-2.86V67C226.62,64.65,227,61.58,226.06,58.88ZM213,84.73c-1.14,2-2.33,2.4-3.46,0A22.57,22.57,0,0,1,209.26,65c1-2.15,3.09-2,4.52.32,1.59,2.58,1.64,5.53,1.65,8.44C215.36,77.6,214.94,81.34,213,84.73Z"/></g><g id="_Group_4" data-name="&lt;Group&gt;"><path id="_Compound_Path_2" data-name="&lt;Compound Path&gt;" class="cls-6" d="M194.38,151.08c-.42-1.18-1.18-2.24-1.71-3.39-2-4.38-5.7-8.66-.75-13.47a3.9,3.9,0,0,0,.7-2.15,44.27,44.27,0,0,0-.19-13.65c-1.41-8.17-5.3-11.78-13.75-12.61a77.19,77.19,0,0,0-12.08,0c-2.38.14-3.61,1.43-3.56,4.27.19,10.89.08,21.78.08,32.67h1c-.17,2.91-.46,5.81-.49,8.72s1.45,5,4.31,5.38c3.07.4,5.53-.79,6.07-4.28.29-1.88.3-3.81.75-5.64.29-1.21-.24-3.17,1.71-3.39s1.77,1.83,2.23,3c1,2.34,1.63,4.79,2.5,7.17.44,1.2,1,2.3,2.64,2.27,2.41,0,4.83.23,7.23.1C194,155.93,195.35,153.85,194.38,151.08Zm-15.56-21.43c-.59,1-1.52,2-2.73,1.69-1.4-.33-.58-1.71-.69-2.6-.18-1.38-.16-2.78-.26-4.85a11.23,11.23,0,0,1,0-2.36c.2-1.16-1-3.13,1.29-3.23,1.87-.08,3.9.89,3.87,2.88C180.27,124,180.33,127,178.82,129.66Z"/></g><g id="_Group_5" data-name="&lt;Group&gt;"><path id="_Compound_Path_3" data-name="&lt;Compound Path&gt;" class="cls-4" d="M190.37,65.35c-1.84-8.61-6.66-14.29-15.31-16.4a52.42,52.42,0,0,0-10.55-1.18c-2.3-.09-3.1.68-3,3,.82,15.14,1.57,30.28,1.55,45.44,0,1.77.76,3.1,2.43,3.37,11.31,1.83,23.58-3.28,25.15-15.84a70,70,0,0,0,.62-8.68A34.6,34.6,0,0,0,190.37,65.35ZM177,84.07a4.13,4.13,0,0,1-1.83,2.33c-1.43.9-2.25.9-2.24-1.19.06-7.32,0-14.64,0-22.5,4.5,1.49,5.66,4.84,6.09,8.35C179.59,75.52,178.3,79.82,177,84.07Z"/></g><g id="_Group_6" data-name="&lt;Group&gt;"><path id="_Compound_Path_4" data-name="&lt;Compound Path&gt;" class="cls-6" d="M225.81,124.13c-1.21-8-5-14-13-16.6a37.18,37.18,0,0,0-9.72-1.66c-5.51-.28-5.42-.23-5.17,5.17.5,10.86.88,21.72,1.35,33.63,0,2,0,5,0,8.07a3.06,3.06,0,0,0,2.07,3.26c6.18,2.3,17.5-1.35,21.27-7C227.73,141.27,227.12,132.71,225.81,124.13Zm-13.26,17.19c-.46,1.41-1.68,2.6-3.07,2.34s-.62-1.9-.63-2.91c-.06-6.67,0-13.35,0-20.49,4.29,1.52,5.51,4.75,5.91,8.11C215.26,132.81,213.94,137.11,212.55,141.31Z"/></g><g id="_Group_7" data-name="&lt;Group&gt;"><path id="_Compound_Path_5" data-name="&lt;Compound Path&gt;" class="cls-4" d="M125.06,92.87c-.36-1.47-.65-3-.9-4.46A325.64,325.64,0,0,0,115.89,53c-1.22-4.38-4.47-4.37-7.75-4.2s-5.94.84-6.9,4.89c-3.06,12.92-5.47,26-7.94,39-.6,3.19.09,5.59,3.43,6.55s6,.13,7.6-3.09a16.63,16.63,0,0,0,1.72-6.57c.07-1.34.57-2.25,2.07-2,1.34.21,3.21-.72,3.68,1.6.3,1.49.58,3,1,4.44,1.69,5.64,2.64,6.39,7.43,6.06C125.92,99.24,126.43,98.49,125.06,92.87ZM110.4,78.3a3.59,3.59,0,0,1-2.19-.08c-.87-.35-.59-1.21-.42-2,.5-2.16,1-4.32,1.59-7.24.59,3,1,5.19,1.46,7.39C111,77.11,111.43,78,110.4,78.3Z"/></g><g id="_Group_8" data-name="&lt;Group&gt;"><path id="_Compound_Path_6" data-name="&lt;Compound Path&gt;" class="cls-5" d="M128.33,39.57c-1.19-2.65-2.38-5.3-3.67-7.9-.51-1-.71-1.87.16-2.74,3-3,2.67-6.91,2.76-10-.13-1.93-.24-3.2-.29-4.46-.4-9.84-7.54-13-15-12.82-1.89,0-3.78.31-5.66.22-3.07-.14-4.49.75-4.54,4.26-.18,11.51,1.55,23,.39,34.52a4.27,4.27,0,0,0,3.87,4.85c2.54.29,4.74-.8,5.08-3.88.23-2,.53-4,.78-6a1.37,1.37,0,0,1,1.46-1.39A1.34,1.34,0,0,1,115,35.28c.28,1,.61,1.93.91,2.89,2.05,6.76,2.23,6.9,9.15,6.65C128.59,44.7,129.79,42.81,128.33,39.57ZM116.71,16.74c-.27,2.11-.15,4.27-1.67,6a1.74,1.74,0,0,1-1.59.79c-.88-.14-.68-.88-.74-1.46-.18-1.87-.34-3.74-.52-5.77.65-1.1-1.3-3.58,1.48-3.67C116.12,12.56,117,14.25,116.71,16.74Z"/></g><g id="_Group_9" data-name="&lt;Group&gt;"><path id="_Compound_Path_7" data-name="&lt;Compound Path&gt;" class="cls-5" d="M157.39,39.76c-.33-2-.84-4-1.19-5.94a278.82,278.82,0,0,0-6.6-27.64c-1-3.6-3.69-3.45-6.29-3.35s-4.88.49-5.77,3.72c-1,3.79-1.69,7.64-2.44,11.48-1.38,7.06-2.86,14.09-4.3,21.14-.23,2.65.5,4.62,3.3,5.24s5-.13,6.14-3a26.36,26.36,0,0,0,1.26-4.36c.26-1.32.36-2.44,2.21-2.33,1.62.1,2.44.54,2.77,2.31a24.17,24.17,0,0,0,2,5.71c1.67,3.59,4.93,2,7.41,1.67C158.48,44.08,157.7,41.59,157.39,39.76ZM144.26,27.28c-1.09-.07-1.59-.65-1.29-1.77.44-1.66.31-3.5,1.51-5.28.43,2.1.79,3.69,1.06,5.3C145.7,26.48,145.56,27.37,144.26,27.28Z"/></g></g></g></g></g></g></g></svg>