<svg xmlns="http://www.w3.org/2000/svg" viewBox="0 0 317.54 212.07"><defs><style>.cls-1{fill:#fff;fill-rule:evenodd;opacity:0.7;}.cls-2{fill:#f09021;}.cls-3{fill:#91bf3e;}.cls-4{fill:#f5e711;}.cls-5{fill:#e30a7d;}.cls-6{fill:#1d9cd7;}.cls-7{fill:#6a4594;}.cls-8{fill:#6b4594;}</style></defs><title>muralizando-anuncio</title><g id="Layer_2" data-name="Layer 2"><g id="Layer_1-2" data-name="Layer 1"><g id="logo_anuncio" data-name="logo anuncio"><path id="_Path_" data-name="&lt;Path&gt;" class="cls-1" d="M317.54,22.62H244.73A96.57,96.57,0,0,1,227,16.41c-2.72-1.31-6.33-1.56-8-4.57-1.21-.8-2.39-.55-3.57-.45-1.53.34-3.38.91-2.87,2.41.7,2,3.55,2.17,5.15,3.24-3.57,0-7.29.4-11.19-.53-1.75-.37-3.56-.46-5.22-1.38a38.44,38.44,0,0,0-3.65-1.36c-6.91-1.78-13.75-4-20.58-6.15-8-2.49-15.81-5.21-24-6.82C145.4-.7,138.85-.28,133.48,3.64a4,4,0,0,0-.68.59,17,17,0,0,1-5.54,4,6.74,6.74,0,0,0-.7.44c-.9.59-1.65,1.33-2.57,1.88A29.26,29.26,0,0,1,112.61,14c-.29-.11-.58-.22-.87-.31a20.19,20.19,0,0,1-2.93-1,7.67,7.67,0,0,0-.83-.35,18.14,18.14,0,0,1-2.57-.88c-.28-.13-.57-.26-.86-.37-.93-.33-1.83-.75-2.75-1.12a15,15,0,0,0-2.58-.68C96.09,9,93.12,7.39,90,7.11,85.85,6.49,81.74,5.59,77.62,5,76.12,4.77,74.41,4.61,74,6s1.37,1.89,2.39,2.74a3.09,3.09,0,0,0-2.51,2,1.74,1.74,0,0,1-2.33,1c-3.41-1-5.05,1.12-7.37,2-1.16.46-.67,1.13.21,1.83.56.45,1.87.34,1.66,1.36s-1.26.79-2.16.78c-3.83-.05-4.58.65-3.2,3.88a9.76,9.76,0,0,1,.25,6.87c-.58,1.77,2,5.31-2.41,5.46-.65,0-.21,1.21.16,1.88,1.22,2.21.06,2.23-2,1.87a6.41,6.41,0,0,1-3.44-1.51,16.67,16.67,0,0,0-3.43-1.71,59.21,59.21,0,0,0-8.87-1.68,5.33,5.33,0,0,0-1,.06c-2.43.61-4.2,2.3-7,2.34-1.09.34-2,.89-3.17,1.16A2.82,2.82,0,0,0,28,37.49a9.09,9.09,0,0,1-3.89,3C18.85,42.76,14.73,46,12.4,50.7c-.19.19-.39.38-.56.59-.69.8-1.83,1.21-2.56,1.91-4.39,4.17-6.84,5.18-3.91,11.2a5.23,5.23,0,0,0,.55.78c2.6,2.58,6,4,9.3,5.47,2.25,1,2.45,1.69.62,2.73s-4.13,1.36-6.25,1.95a5.2,5.2,0,0,0-.8.38,14.09,14.09,0,0,1-2.53,1.09C1.45,77.95,0,81.08,0,85.31c0,7,3.42,13,9.82,18.21,2.85,2.58,6.75,4.64,6.5,8.72,0,.76,1.06,1.6,1.8,2.31,1.31,1.26,2.66,2.49,4,3.73a3,3,0,0,0,1.6,1.12c2.43.43,3.83,2.09,5.31,3.65a16.47,16.47,0,0,0,8.86,6.8,46.31,46.31,0,0,0,5.67,1.89c2.54.51,1.17,1.13.55,1.78a6.66,6.66,0,0,0-.58.53c-1.18,1.32-2.13,2.83-4,3.53a2.86,2.86,0,0,0-.91.77,8.82,8.82,0,0,0-1.24,2,24.9,24.9,0,0,1-7.17,5.79c-5.71,3-5.49,8.66.09,13.56a31.54,31.54,0,0,0,2.89,2.48,9.88,9.88,0,0,0,.84.53c.91.55,1.92.93,2.8,1.52l.67.54a12.7,12.7,0,0,1,1.57,2,4.81,4.81,0,0,0,.63.63,18.59,18.59,0,0,0,4.25,2.94c.29.16.58.3.88.43,2.94,1.74,5.69.81,8.51.86a5.73,5.73,0,0,0,.91-.14c.29-.07.58-.13.87-.22a7.72,7.72,0,0,1,2.69.07c1.5.19,2.95.32,3.64,2,.59,1.47.62,2.47-1.25,2.76-.53.08-1,.9-.69,1.06,2,1.15.37,1.89.27,2.79-.08.63,1.29.89.68,1.78-2.06,3-1.12,5,3.11,7a12.83,12.83,0,0,1,3.59,2.19c1.48,1.47,3,1.48,4.75,1.31.8-.08,1.47-.76,2.46-.13.08.5-.28.72-.56,1a7.61,7.61,0,0,1-2,1.24,6.8,6.8,0,0,0-1.18.7c-4.28,3.68-3.66,8.67,1.56,12.87,6.31,5.08,15.56-22.72,23.14-21.18.37,0,24.37,47.65,8.59,12.28,4.69.41.06-.26,4.74,0,.35,0,5.68,0,6,0,1.43-.19-2.08-.05-.63,0a9.23,9.23,0,0,0,1,0,36.51,36.51,0,0,1,4.35,0,8.06,8.06,0,0,0,1,0,35.32,35.32,0,0,1,4.68,0,7.11,7.11,0,0,0,1.08,0,86.23,86.23,0,0,1,11.86,0h.47c1.58-.43,3.41.74,4.94,0h0a39.36,39.36,0,0,1,4,0c3.89-.08,7.74-.53,11.64,0a74.06,74.06,0,0,0,21.49,0c3.27-.52,6.82.62,10,0h-.05c3.66-.09,7.49.55,11.07,0h0c3.2,0,6.55,1.66,9.12,0h0c1.67-.63,4,1.73,4.94,0h0c1.45-.45,2.89.6,4.25,0h0c2-.39,3.63,1.31,4.88,0,2.56-4.66,5.76,5.24,7.14,0,.11-.24.21.26.28,0,2.45-3.39,3.76-1.16,8.39,0,4.09,1,8.24-2,12.3-.65a3.15,3.15,0,0,0,1.68.05c.64-.14,1.35-.31,1.35-1s-.7-1.07-1.32-1.41a9.54,9.54,0,0,0-4.38-.92,8.42,8.42,0,0,1-6.08-2.28c3.62-.66,7.45,1.73,10.76.54A2.78,2.78,0,0,0,253,192h-.2c-1.08-.32-1.08,0-1-.2h.3c.3.08.61.13.93.21a39.51,39.51,0,0,0,6.07-.21h2.41a14.24,14.24,0,0,1,2.36.31,1.2,1.2,0,0,0,1.24-.31h52.43Z"/><g id="_Group_" data-name="&lt;Group&gt;"><path id="_Path_2" data-name="&lt;Path&gt;" class="cls-2" d="M109.57,43.35a5.39,5.39,0,0,0,1.36.93c4.41,1.31,5.6,3.32,5.74,8.18.16,5.46-.22,10.91,0,16.38.62,12.8.21,25.61-.36,38.41a36,36,0,0,1-1.56,8.6c-1,3.36-3,4.65-6.45,4.84-3.15.18-6.2-.48-9.29-.78-3.83-.36-5.61-3.18-5.74-7.21A94.29,94.29,0,0,0,92,102.33c-.81-5.67-.55-11.4-.58-17.07,0-7.84-1.12-15.67-.45-23.52.37-4.31.58-8.64,1.12-12.93.28-2.25,1.11-4.44,3.84-5,1.86-.6,3.85.24,5.7-.5h1.14a5.81,5.81,0,0,0,4,0Z"/><path id="_Path_3" data-name="&lt;Path&gt;" class="cls-3" d="M208.07,136c.1,5.75-.77,9.92-1.31,14.12-.41,3.19-2.56,5.4-5.09,7.19a3.49,3.49,0,0,1-2.68.76c-5.29-1.11-10.27,1-15.41,1.35-5.9.45-11.74,1.28-17.77.8-3.35-.27-7.11-.4-10.58.68a2.35,2.35,0,0,1-.85,0c-11.63-.85-23.23,1.42-34.87.28-6.89-.67-13.89-.5-20.68-1.62-5.46-.9-7.06-2.2-7.42-8.09-.31-5.13-.11-10.26-.37-15.4-.15-3.09.53-7.31,2.55-9.15,2.55-2.32,5.56-4.77,10.37-4.34a109.34,109.34,0,0,0,22.09.13,20.28,20.28,0,0,1,4.15.06c8.44.76,16.79-1,25.23-.58,12.09.66,24.21.78,36.3,1.43a33.4,33.4,0,0,1,10.69,2.59C206.76,128,208.07,130.85,208.07,136Z"/><path id="_Path_4" data-name="&lt;Path&gt;" class="cls-4" d="M227.37,62.12a79.87,79.87,0,0,1,.21-11.87c.51-4.28,1.63-5.25,5.8-4.89a35.87,35.87,0,0,0,7.45-.27c4.86-.61,9.63.2,14.35,1a5.3,5.3,0,0,1,4.27,5.09,78.22,78.22,0,0,1-.57,19.47c-.28,1.66-1.32,2.3-3.1,3.15-5.71,2.72-11.79,1.54-17.59,2.67-3,.59-5.95-.77-8.85-1.5-1.54-.39-1.86-2.12-1.92-3.52C227.28,68.35,227.37,65.23,227.37,62.12Z"/><path id="_Path_5" data-name="&lt;Path&gt;" class="cls-5" d="M200,85.36c0-.47-.06-.94,0-1.42.1-4.85,1.55-5.88,6.35-4.67a2.17,2.17,0,0,1,1.83,2.16c.2,2.63.39,5.26.59,7.89.66,8.57.86,17.16.81,25.75,0,1.8-.33,3.3-2.62,3.65-3.72.57-6,0-7-2.13-1.24-2.69-1.42-5.77-3.37-9,0,3.08,0,5.4,0,7.72,0,1.85-.65,2.89-2.64,2.74-.56,0-1.13,0-1.7-.07-5.11-.3-4.84-.35-5-5.46-.38-10.1-.37-20.19-.34-30.28,0-2.14.69-2.71,2.5-2.67s3.59.22,5.38.17c1.23,0,1.62.72,2,1.59a39.7,39.7,0,0,1,2.58,6.88C200.86,87.5,200.07,86.35,200,85.36Z"/><path id="_Path_6" data-name="&lt;Path&gt;" class="cls-6" d="M137.08,64.55c-3,4.37-3.46,4.5-8,2.43-.66,2.18-.49,4.45-.68,6.67-.24,2.79-1.12,3.28-4.78,3.24-2.31,0-2.8-1.18-2.82-3.23-.09-8.94-.29-17.88-.45-26.82a2.13,2.13,0,0,1,.31-1.62c1.73-1.92,8.34-.64,9.3,1.81.88,2.25,1.71,4.52,2.77,7.37,1.32-2.88,2.48-5.2,3.47-7.6,1.35-3.26,4-1.63,6.13-1.62,1.91,0,2,1.59,2,3.32q0,12.6.36,25.2c.07,2.26-.29,3.68-2.88,3.74-3.48.09-4.74-.78-4.79-3.65S137.08,67.84,137.08,64.55Z"/><path id="_Path_7" data-name="&lt;Path&gt;" class="cls-5" d="M149.2,90c-3.15,0-5.51,0-7.87,0-2.79,0-4.34-1.65-4.25-4.44.14-4.72.16-5,5-4.57,4.61.38,9.22-.5,13.82.39,1.85.36,2.28,1.25,2.67,3,1.21,5.34-2.42,9-4.3,13.23s-4.31,7.93-6.64,12.12c2.85.71,5.55.2,8.21.28,2,.06,3.64.53,3.58,2.93-.06,2.09.34,4.61-2.92,4.78-6.2.33-12.39.89-18.6.67-1.57-.05-2-1.18-2.21-2.73-.48-3.92,2-6.58,3.76-9.53C142.47,100.81,144.84,95.13,149.2,90Z"/><path id="_Path_8" data-name="&lt;Path&gt;" class="cls-6" d="M146.45,57.36c0-3,0-6.06,0-9.08,0-1.09-.55-2.71,1.57-2.55,1.9.14,4.35-1.34,5.36,1.56a13.61,13.61,0,0,1,.44,3.64c.34,5.94-.47,11.92.51,17.85.15.94,0,2.13,1.22,2.24s1.54-1.06,1.85-2.08a17.23,17.23,0,0,0,.52-6.46c-.39-4.82.64-9.63.09-14.45-.15-1.34.59-2.06,1.93-2.33,4.66-.94,6,.17,5.82,5-.19,5.57-.46,11.15-.62,16.72a16.77,16.77,0,0,1-2.3,7.8c-1.32,2.34-4.74,3.09-9,2.12-4.05-.91-6-3.72-6.77-7.51C146.19,65.7,146.64,61.51,146.45,57.36Z"/><path id="_Path_9" data-name="&lt;Path&gt;" class="cls-5" d="M121.93,98.71A78.87,78.87,0,0,1,122,83.13c.29-3.5.59-3.82,4.69-3.87,3.74,0,5.46,1,5.38,3.79-.26,10.18.52,20.38-.4,30.55-.42,4.64-2.51,5.93-6.91,4.4a2.89,2.89,0,0,1-2.22-2.63A159.22,159.22,0,0,1,121.93,98.71Z"/><path id="_Path_10" data-name="&lt;Path&gt;" class="cls-6" d="M210.18,58.56c0-3.68.09-7.36,0-11-.06-1.74.69-2.43,2.24-2.51,1-.05,2.08.13,3.11,0,2.47-.21,3.14,1.21,3.1,3.29-.13,5.84-.13,11.7-.51,17.52-.17,2.53.62,3.24,3,3.44,4.15.36,4.74,1.32,4.51,5.47-.09,1.59-.77,2.23-2.25,2.21a83.71,83.71,0,0,1-10.47-.52c-1.65-.23-2.13-1.09-2.3-2.63A145.82,145.82,0,0,1,210.18,58.56Z"/><g id="_Group_2" data-name="&lt;Group&gt;"><path id="_Compound_Path_" data-name="&lt;Compound Path&gt;" class="cls-5" d="M259.4,87.28c-1.49-4.41-4-7.51-8.82-8.61-5.15-1.17-10.71.79-13,5.52-3.33,6.88-3.29,14.24-2,21.61a17.38,17.38,0,0,0,5.47,10.6c3.9,3.45,11.62,3.43,14.66-.28a20.55,20.55,0,0,0,4.53-8.72c.16-.76,0-1.76,1.05-2.13V93.35C259.82,91.59,260.08,89.29,259.4,87.28Zm-9.76,19.28c-.85,1.46-1.74,1.79-2.58,0a16.84,16.84,0,0,1-.19-14.75c.72-1.6,2.31-1.49,3.37.24,1.18,1.93,1.22,4.12,1.23,6.3A16.46,16.46,0,0,1,249.64,106.57Z"/></g><g id="_Group_3" data-name="&lt;Group&gt;"><path id="_Compound_Path_2" data-name="&lt;Compound Path&gt;" class="cls-7" d="M235.76,156.08c-.31-.88-.88-1.67-1.27-2.53-1.5-3.27-4.25-6.46-.56-10a2.91,2.91,0,0,0,.52-1.6,33,33,0,0,0-.14-10.18c-1.05-6.09-4-8.79-10.26-9.41a57.59,57.59,0,0,0-9,0c-1.77.1-2.69,1.06-2.66,3.18.14,8.12.06,16.25.06,24.37h.76c-.13,2.17-.35,4.34-.37,6.51s1.08,3.74,3.22,4,4.12-.59,4.53-3.19c.22-1.4.23-2.84.56-4.21.22-.9-.18-2.37,1.28-2.53s1.32,1.37,1.67,2.22c.71,1.75,1.22,3.57,1.86,5.35.33.9.73,1.72,2,1.69,1.8,0,3.6.17,5.39.08C235.49,159.69,236.49,158.14,235.76,156.08Zm-11.61-16c-.44.76-1.13,1.48-2,1.26s-.43-1.27-.52-1.94c-.13-1-.12-2.07-.2-3.62a8.38,8.38,0,0,1,0-1.76c.15-.86-.73-2.34,1-2.41,1.39-.06,2.91.67,2.89,2.15C225.23,135.88,225.28,138.13,224.15,140.09Z"/></g><g id="_Group_4" data-name="&lt;Group&gt;"><path id="_Compound_Path_3" data-name="&lt;Compound Path&gt;" class="cls-5" d="M232.77,92.11c-1.37-6.43-5-10.66-11.42-12.24a39.11,39.11,0,0,0-7.87-.88c-1.71-.06-2.31.51-2.22,2.26.61,11.29,1.17,22.59,1.16,33.91a2.24,2.24,0,0,0,1.82,2.51c8.44,1.36,17.59-2.45,18.76-11.82a52.24,52.24,0,0,0,.46-6.48A25.81,25.81,0,0,0,232.77,92.11Zm-10,14a3.08,3.08,0,0,1-1.37,1.74c-1.06.67-1.68.67-1.67-.89,0-5.46,0-10.92,0-16.78,3.36,1.11,4.22,3.61,4.54,6.23C224.73,99.7,223.77,102.91,222.81,106.07Z"/></g><g id="_Group_5" data-name="&lt;Group&gt;"><path id="_Compound_Path_4" data-name="&lt;Compound Path&gt;" class="cls-8" d="M259.21,136c-.9-5.93-3.71-10.42-9.71-12.38a27.74,27.74,0,0,0-7.25-1.24c-4.11-.21-4-.17-3.86,3.86.37,8.1.66,16.2,1,25.09,0,1.48,0,3.75,0,6a2.28,2.28,0,0,0,1.54,2.43c4.61,1.72,13.06-1,15.87-5.23C260.64,148.75,260.19,142.37,259.21,136Zm-9.89,12.82a2.21,2.21,0,0,1-2.29,1.74c-1-.2-.46-1.42-.47-2.17,0-5,0-10,0-15.29,3.2,1.13,4.11,3.55,4.41,6.05C251.34,142.44,250.36,145.65,249.32,148.79Z"/></g><g id="_Group_6" data-name="&lt;Group&gt;"><path id="_Compound_Path_5" data-name="&lt;Compound Path&gt;" class="cls-5" d="M184,112.64c-.27-1.1-.49-2.21-.67-3.33a243,243,0,0,0-6.17-26.43c-.91-3.27-3.33-3.26-5.78-3.13s-4.43.63-5.15,3.65c-2.29,9.64-4.08,19.37-5.92,29.09-.45,2.38.06,4.17,2.56,4.89s4.48.1,5.67-2.3a12.41,12.41,0,0,0,1.28-4.9c.05-1,.43-1.68,1.54-1.51s2.4-.54,2.74,1.19c.22,1.11.44,2.23.76,3.31,1.26,4.21,2,4.77,5.54,4.52C184.68,117.39,185.07,116.84,184,112.64Zm-10.94-10.87a2.68,2.68,0,0,1-1.63-.06c-.65-.26-.44-.9-.31-1.46.37-1.61.71-3.23,1.19-5.4.44,2.23.77,3.87,1.09,5.51C173.54,100.88,173.87,101.55,173.11,101.77Z"/></g><g id="_Group_7" data-name="&lt;Group&gt;"><path id="_Compound_Path_6" data-name="&lt;Compound Path&gt;" class="cls-6" d="M186.48,72.87c-.89-2-1.78-4-2.74-5.9-.38-.76-.53-1.39.12-2,2.27-2.26,2-5.16,2.06-7.48-.09-1.44-.18-2.39-.21-3.33-.3-7.34-5.63-9.68-11.21-9.56-1.41,0-2.82.23-4.22.17-2.29-.1-3.35.56-3.39,3.18-.13,8.59,1.15,17.16.29,25.76a3.18,3.18,0,0,0,2.89,3.62c1.9.22,3.53-.6,3.79-2.89.17-1.5.39-3,.58-4.5a1,1,0,0,1,1.09-1,1,1,0,0,1,1,.83c.21.72.46,1.44.68,2.16,1.53,5,1.67,5.15,6.82,5C186.67,76.7,187.57,75.29,186.48,72.87Zm-8.67-17c-.2,1.57-.11,3.19-1.25,4.48a1.3,1.3,0,0,1-1.19.59c-.66-.1-.51-.66-.55-1.09-.13-1.39-.25-2.79-.39-4.3.49-.82-1-2.67,1.11-2.74C177.37,52.72,178.05,54,177.81,55.84Z"/></g><g id="_Group_8" data-name="&lt;Group&gt;"><path id="_Compound_Path_7" data-name="&lt;Compound Path&gt;" class="cls-6" d="M208.17,73c-.25-1.49-.62-2.95-.89-4.43A208,208,0,0,0,202.36,48c-.76-2.68-2.75-2.57-4.69-2.5s-3.64.37-4.3,2.78c-.78,2.83-1.26,5.7-1.82,8.57-1,5.27-2.14,10.52-3.21,15.77-.17,2,.37,3.45,2.46,3.91s3.76-.1,4.58-2.23a19.67,19.67,0,0,0,.94-3.26c.19-1,.27-1.82,1.65-1.74,1.21.07,1.82.4,2.07,1.72a18,18,0,0,0,1.46,4.26c1.25,2.68,3.68,1.49,5.53,1.24S208.4,74.38,208.17,73Zm-9.8-9.31c-.82-.05-1.18-.48-1-1.32.32-1.24.23-2.61,1.13-3.94.32,1.57.59,2.75.79,4C199.44,63.11,199.34,63.77,198.37,63.71Z"/></g></g></g></g></g></svg>