<svg xmlns="http://www.w3.org/2000/svg" xmlns:xlink="http://www.w3.org/1999/xlink" viewBox="0 0 229.17 140.09"><defs><style>.cls-1{isolation:isolate;}.cls-2{opacity:0.85;mix-blend-mode:multiply;fill:url(#radial-gradient);}.cls-3{fill:url(#linear-gradient);}.cls-4{fill:url(#radial-gradient-2);}.cls-5{fill:url(#radial-gradient-3);}.cls-6{mix-blend-mode:screen;fill:url(#linear-gradient-2);}.cls-7,.cls-8{mix-blend-mode:overlay;}.cls-7{fill:url(#radial-gradient-4);}.cls-8{fill:url(#radial-gradient-5);}.cls-9{font-size:50.99px;fill:#fff;font-family:HaydonBrushPERSONALUSE, Haydon Brush PERSONAL USE;}</style><radialGradient id="radial-gradient" cx="157.3" cy="236.96" r="158.9" gradientTransform="translate(4.56 93.74) scale(0.69 0.05)" gradientUnits="userSpaceOnUse"><stop offset="0" stop-color="#221f1f"/><stop offset="0.01" stop-color="#262323" stop-opacity="0.98"/><stop offset="0.32" stop-color="#9f9e9e" stop-opacity="0.43"/><stop offset="0.65" stop-color="#e7e7e7" stop-opacity="0.11"/><stop offset="1" stop-color="#fff" stop-opacity="0"/></radialGradient><linearGradient id="linear-gradient" x1="26.74" y1="26.14" x2="221.05" y2="26.14" gradientTransform="translate(-13.98 25.69) scale(1.04)" gradientUnits="userSpaceOnUse"><stop offset="0" stop-color="#a6238a"/><stop offset="0.38" stop-color="#a7258b"/><stop offset="0.52" stop-color="#aa2c8f"/><stop offset="0.62" stop-color="#ae3795"/><stop offset="0.7" stop-color="#b5489e"/><stop offset="0.77" stop-color="#be5eaa"/><stop offset="0.83" stop-color="#c97ab8"/><stop offset="0.88" stop-color="#d69ac9"/><stop offset="0.93" stop-color="#e5c0dd"/><stop offset="0.98" stop-color="#f6e9f3"/><stop offset="1" stop-color="#fff"/></linearGradient><radialGradient id="radial-gradient-2" cx="-345.44" cy="705.88" r="167.94" gradientTransform="translate(335.84 -305.87) scale(0.76 0.48)" gradientUnits="userSpaceOnUse"><stop offset="0" stop-color="#e8549c"/><stop offset="1" stop-color="#e9128b"/></radialGradient><radialGradient id="radial-gradient-3" cx="-810.2" cy="-280.84" r="90.15" gradientTransform="matrix(0.85, -0.73, 1.15, 0.54, 1075.72, -382.68)" gradientUnits="userSpaceOnUse"><stop offset="0" stop-color="#fff"/><stop offset="1" stop-color="#e8549c"/></radialGradient><linearGradient id="linear-gradient-2" x1="17.6" y1="52.44" x2="170.71" y2="52.44" gradientUnits="userSpaceOnUse"><stop offset="0" stop-color="#fff" stop-opacity="0"/><stop offset="0.15" stop-color="#fff" stop-opacity="0.02"/><stop offset="0.34" stop-color="#fff" stop-opacity="0.09"/><stop offset="0.55" stop-color="#fff" stop-opacity="0.19"/><stop offset="0.79" stop-color="#fff" stop-opacity="0.34"/><stop offset="1" stop-color="#fff" stop-opacity="0.5"/></linearGradient><radialGradient id="radial-gradient-4" cx="1084.24" cy="21.78" r="19.5" gradientTransform="matrix(0.25, 0.52, -1.72, 0.66, -186.48, -556.48)" gradientUnits="userSpaceOnUse"><stop offset="0" stop-color="#fff"/><stop offset="0" stop-color="#fff" stop-opacity="0.99"/><stop offset="0.12" stop-color="#fff" stop-opacity="0.76"/><stop offset="0.25" stop-color="#fff" stop-opacity="0.56"/><stop offset="0.37" stop-color="#fff" stop-opacity="0.39"/><stop offset="0.5" stop-color="#fff" stop-opacity="0.25"/><stop offset="0.62" stop-color="#fff" stop-opacity="0.14"/><stop offset="0.75" stop-color="#fff" stop-opacity="0.06"/><stop offset="0.87" stop-color="#fff" stop-opacity="0.02"/><stop offset="1" stop-color="#fff" stop-opacity="0"/></radialGradient><radialGradient id="radial-gradient-5" cx="1023.32" cy="-334.56" r="14.51" gradientTransform="matrix(0.3, 0.7, -2.02, 0.7, -792.12, -393.91)" xlink:href="#radial-gradient-4"/></defs><title>unete-sombra_1</title><g class="cls-1"><g id="Layer_2" data-name="Layer 2"><g id="Layer_1-2" data-name="Layer 1"><path id="_Path_" data-name="&lt;Path&gt;" class="cls-2" d="M207.48,79.09c0,3.75-42.5,61-94.94,61S17.6,82.84,17.6,79.09s42.51-6.8,94.94-6.8S207.48,75.33,207.48,79.09Z"/><g id="_Group_" data-name="&lt;Group&gt;"><g id="_Group_2" data-name="&lt;Group&gt;"><g id="_Group_3" data-name="&lt;Group&gt;"><g id="_Group_4" data-name="&lt;Group&gt;"><g id="_Group_5" data-name="&lt;Group&gt;"><path id="_Path_2" data-name="&lt;Path&gt;" class="cls-3" d="M216.45,52.93c0,39.84-51.19,43.37-101.28,43.37S13.9,92.77,13.9,52.93,65.09,9.57,115.17,9.57,216.45,13.1,216.45,52.93Z"/><path id="_Path_3" data-name="&lt;Path&gt;" class="cls-4" d="M212.74,52.93c0,37.58-50.31,41.61-97.57,41.61s-97.57-4-97.57-41.61,50.3-41.6,97.57-41.6S212.74,15.34,212.74,52.93Z"/><path id="_Compound_Path_" data-name="&lt;Compound Path&gt;" class="cls-5" d="M41.53,24.47C14.29,40.16,19.12,80.34,59.6,87.79c34.47,6.35,101.82,9.39,129.21-6.4,27.24-15.69,22.4-55.87-18.07-63.32C136.27,11.73,68.92,8.69,41.53,24.47Zm145.26,55.8C159.31,95.72,95.56,93,61.16,86.56c-38.88-7.24-44.4-45.9-17.61-61C71,10.15,134.79,12.91,169.18,19.31,208,26.55,213.57,65.22,186.79,80.27Z"/></g></g><path id="_Path_4" data-name="&lt;Path&gt;" class="cls-6" d="M17.82,56.85c.06.56.14,1.11.22,1.65a32.16,32.16,0,0,0,5.09,13C33.36,86.13,56.69,91.62,83,93.56c29-26.33,61.16-50.82,87.67-78.25-14.85-3-32.16-3.8-49.37-3.94l-6.17,0c-32.43,0-66.28,1.9-84.34,15.22C22.61,32.68,17.66,41.18,17.6,52.93c0,1,.05,2,.13,3C17.76,56.26,17.78,56.56,17.82,56.85Z"/></g><path id="_Path_5" data-name="&lt;Path&gt;" class="cls-7" d="M51.64,40C27.85,49.12,5,49.08.72,39.93s11.43-24,35.22-33.11,46.59-9.09,50.93.07S75.43,30.88,51.64,40Z"/><path id="_Path_6" data-name="&lt;Path&gt;" class="cls-8" d="M197.86,100C177,107.2,157,105.7,153,96.6S162.85,74.23,183.7,67s40.9-5.75,44.81,3.35S218.7,92.7,197.86,100Z"/></g></g><g id="_Group_6" data-name="&lt;Group&gt;"><text class="cls-9" transform="translate(45.13 72.12)">¡ Únete !</text></g></g></g></g></svg>